<?xml version="1.0" encoding="utf-8"?>
<!-- Generator: Adobe Illustrator 27.5.0, SVG Export Plug-In . SVG Version: 6.00 Build 0)  -->
<svg version="1.1" id="Слой_1" xmlns="http://www.w3.org/2000/svg" xmlns:xlink="http://www.w3.org/1999/xlink" x="0px" y="0px"
	 viewBox="0 0 664.747 518.623" style="enable-background:new 0 0 664.747 518.623;" xml:space="preserve">
<g>
	<rect style="fill:#FCFCFC;" width="664.747" height="518.623"/>
	<g>
		<linearGradient id="SVGID_1_" gradientUnits="userSpaceOnUse" x1="439.664" y1="304.4614" x2="594.0566" y2="304.4614">
			<stop  offset="0" style="stop-color:#96CBFF"/>
			<stop  offset="1" style="stop-color:#5599FF"/>
		</linearGradient>
		<path style="fill:url(#SVGID_1_);" d="M573.831,338.705c3.226-5.358,5.626-11.078,7.207-16.972l12.756-2.444l0.132-14.109
			l0.131-14.109l-12.708-2.682c-1.471-5.923-3.764-11.685-6.889-17.103l7.286-10.739l-9.885-10.07l-9.884-10.07l-10.873,7.085
			c-5.358-3.226-11.077-5.626-16.972-7.206l-2.444-12.756l-14.109-0.132l-14.109-0.131l-2.682,12.709
			c-5.923,1.471-11.686,3.764-17.104,6.889l-10.739-7.286l-10.07,9.884l-10.069,9.884l7.085,10.874
			c-3.227,5.358-5.627,11.076-7.207,16.972l-12.757,2.444l-0.131,14.109l-0.132,14.108l12.709,2.682
			c1.47,5.923,3.764,11.685,6.889,17.103l-7.286,10.739l9.884,10.07l9.884,10.07l10.874-7.085
			c5.358,3.226,11.077,5.626,16.972,7.207l2.444,12.756l14.109,0.132l14.109,0.132l2.681-12.71
			c5.924-1.47,11.686-3.763,17.103-6.889l10.739,7.287l10.07-9.884l10.07-9.884L573.831,338.705z M492.17,328.695
			c-13.384-13.636-13.18-35.54,0.456-48.925c13.637-13.385,35.541-13.18,48.925,0.456c13.385,13.637,13.181,35.541-0.456,48.925
			C527.459,342.535,505.555,342.331,492.17,328.695z"/>
		
			<linearGradient id="SVGID_00000146469666886238355410000012448048913735349162_" gradientUnits="userSpaceOnUse" x1="-95.065" y1="875.7217" x2="20.2189" y2="875.7217" gradientTransform="matrix(0.9948 -0.1022 0.1022 0.9948 141.5578 -671.2963)">
			<stop  offset="0" style="stop-color:#96CBFF"/>
			<stop  offset="1" style="stop-color:#5599FF"/>
		</linearGradient>
		<path style="fill:url(#SVGID_00000146469666886238355410000012448048913735349162_);" d="M238.76,224.785
			c1.987-4.227,3.333-8.658,4.058-13.157l9.289-2.789l-0.98-10.49l-0.979-10.491l-9.645-1.022
			c-1.545-4.288-3.688-8.393-6.423-12.179l4.593-8.534l-8.11-6.726l-8.11-6.726l-7.536,6.092c-4.227-1.987-8.658-3.333-13.157-4.058
			l-2.789-9.289l-10.49,0.979l-10.491,0.979l-1.021,9.645c-4.288,1.544-8.394,3.687-12.179,6.422l-8.533-4.593l-6.727,8.11
			l-6.726,8.11l6.093,7.536c-1.987,4.227-3.334,8.658-4.058,13.157l-9.289,2.789l0.979,10.491l0.98,10.49l9.645,1.022
			c1.545,4.288,3.688,8.393,6.423,12.179l-4.593,8.534l8.11,6.726l8.11,6.726l7.536-6.092c4.227,1.987,8.658,3.333,13.157,4.058
			l2.789,9.289l10.49-0.979l10.491-0.979l1.021-9.645c4.287-1.544,8.393-3.687,12.179-6.422l8.533,4.593l6.726-8.11l6.725-8.11
			L238.76,224.785z M177.337,223.582c-10.982-9.107-12.502-25.394-3.395-36.377c9.107-10.982,25.393-12.502,36.376-3.395
			c10.983,9.107,12.503,25.394,3.395,36.376C204.606,231.169,188.32,232.689,177.337,223.582z"/>
		<g>
			<path style="fill:#64A4FF;" d="M550.071,436.964h-0.885v-62.866c0-13.988-11.38-25.367-25.368-25.367h-64.681
				c-14.476,0-26.253-11.777-26.253-26.253V204.968c0-13.988-11.38-25.368-25.367-25.368H242.592v-0.885h164.926
				c14.475,0,26.252,11.777,26.252,26.252v117.509c0,13.987,11.38,25.368,25.368,25.368h64.681
				c14.477,0,26.253,11.776,26.253,26.252V436.964z"/>
		</g>
		<g>
			<g>
				<g>
					<g>
						<g>
							<path style="fill:#BBD070;" d="M284.865,138.898c0,0,9.981,39.748-13.984,50.614c-23.966,10.866-19.375-9.029-19.375-9.029
								s-9.83-2.731,16.922-17.898C281.037,155.436,284.865,138.898,284.865,138.898z"/>
						</g>
					</g>
				</g>
			</g>
			<g>
				<g>
					<g>
						<g>
							<path style="fill:#97A43C;" d="M347.629,142.367c0,0,4.913,34.647-40.443,49.624c-45.357,14.976-51.815,33.975-51.815,33.975
								S254.013,149.173,347.629,142.367z"/>
						</g>
					</g>
				</g>
			</g>
			<g>
				<g>
					<g>
						<g>
							<path style="fill:#48753A;" d="M255.167,211.854c-13.449-5.133,18.518-32.658,43.087-31.915
								c24.568,0.743,41.217,9.836,57.673,5.994C355.927,185.933,321.395,237.132,255.167,211.854z"/>
						</g>
					</g>
				</g>
			</g>
		</g>
		<g>
			<g>
				<g>
					<path style="fill:#DBD8E3;" d="M300.352,234.852c0.774-10.449,1.314-20.221,1.619-29.334c-2.521-1.336-5.552-2.897-7.977-4.048
						c-7.507-3.574-17.965-8.387-24.676-11.466c-3.929-1.805-7.777-3.124-7.777-3.124s-26.821-2.57-28.998-2.433
						c-0.687,0.04-4.039,1.208-8.437,2.885c-9.512,3.609-27.849,10.958-30.768,13.055c-4.282,3.065-19.603,78.165-20.01,83.266
						c-0.397,4.954,20.837,11.732,40.501,16.926c-0.014,7.613-0.168,18.279-0.341,28.016c-0.026,1.664-0.058,3.296-0.089,4.88
						h86.044c-0.115-1.672-0.217-3.322-0.301-4.88c-0.009-0.208-0.022-0.411-0.03-0.615c-0.328-6.595-1.61-18.406-1.283-29.909
						c0,0-0.208-12.126,0.995-17.346C298.959,257.674,300.352,234.852,300.352,234.852z M191.247,279.006
						c0.142-9.776,13.161-27.963,13.161-27.963s0.602-0.256,0.61-0.23c0.009,0.009,0.672-0.093,0.672-0.084
						c0.014,0,2.022-1.915,2.035-1.915c0.479,1.739,4.791,26.3,5.849,40.598C201.347,287.009,191.176,283.669,191.247,279.006z"/>
				</g>
			</g>
			<g>
				<g>
					<path style="fill:#323657;" d="M301.945,328.593c-0.566-4.074-1.102-8.145-1.584-12.13c0-0.021-0.009-0.035-0.009-0.058
						c-0.155-1.327-0.314-2.637-0.465-3.941c-0.009-0.063-0.013-0.133-0.022-0.208c-0.629-5.489-1.15-10.755-1.526-15.576
						c-0.283-3.694-0.027-7.304,0.482-10.834c1.496-24.654,2.239-50.649,2.239-50.649c0.787-10.639,1.238-20.584,1.539-29.852
						c0,0-33.679-15.917-36.732-16.829c0,0,6.389,15.001,11.18,48.53c1.84,12.878,5.251,34.555,7.729,56.679v0.005
						c1.34,11.939,3.853,24.101,5.764,34.863c0.292,1.664,0.571,3.292,0.827,4.88h11.272
						C302.4,331.85,302.171,330.222,301.945,328.593z"/>
				</g>
			</g>
			<g>
				<g>
					<path style="fill:#323657;" d="M245.873,288.99c1.327-12.466,2.521-24.906,1.946-31.723
						c-4.645-54.803-17.788-69.309-19.695-71.432c-1.473,0.562-7.082,2.668-8.724,3.318c-8.989,3.544-27.313,10.038-29.781,11.812
						c-4.282,3.065-21.164,81.797-21.673,86.889c-0.341,3.441,21.69,10.634,44.168,17.054c-0.208,6.162,0.375,14.854-1.673,23.932
						c-0.358,1.61-0.889,2.627-0.972,4.756l31.333-0.123c0.19-1.619,0.39-3.242,0.589-4.88c0.597-4.896,1.221-9.913,1.84-15.244
						c9.396,2.433,15.784,3.999,15.784,3.999s8.826-14.922,11.388-20.964C270.841,295.353,259.48,292.623,245.873,288.99z
						 M205.355,270.126c-0.297-11.219-0.244-19.047-0.244-19.047c1.11,3.844,2.645,14.829,3.999,25.747
						C204.559,274.534,205.413,272.392,205.355,270.126z"/>
				</g>
			</g>
			<g>
				<g>
					<path style="fill:#EEA987;" d="M231.137,185.305c0,0,3.411-6.446,2.469-24.747c-0.261-5.07,26.632,12.024,26.632,12.024
						s-0.094,1.748-0.151,4.105c-0.03,0.982-0.048,2.057-0.048,3.163c0,0.305,0.004,0.61,0.004,0.915
						c0.005,0.5,0.009,0.996,0.017,1.491c0.014,0.615,0.036,1.216,0.067,1.796c0.031,0.659,0.075,1.283,0.138,1.854
						c0.11,1.106,0.761,3.057,0.995,3.592C262.493,192.343,241.205,192.507,231.137,185.305z"/>
				</g>
			</g>
			<g>
				<path style="fill:#E8734D;" d="M253.683,196.945l4.956,6.659c0,0-2.903,3.888-8.061,1.018L253.683,196.945z"/>
			</g>
			<g>
				<path style="fill:#E8734D;" d="M257.314,203.874c0,0,18.157,44.349,14.283,100.682l-5.727,10.395l-6.458-8.853
					c0,0-1.042-74.816-6.196-102.401L257.314,203.874z"/>
			</g>
			<g>
				<path style="fill:#EEA987;" d="M258.989,190.736l-5.307,6.208c0,0-8.517-1.65-11.017-6.099
					C240.165,186.397,258.989,190.736,258.989,190.736z"/>
			</g>
			<g>
				<path style="fill:#C4C1CC;" d="M260.206,185.303c0,0-0.616,4.732-6.523,11.642l6.448,8.663l3.49-17.972L260.206,185.303z"/>
			</g>
			<g>
				<path style="fill:#C4C1CC;" d="M232.757,179.611c0,0,12.314,13.929,20.926,17.334l-4.005,9.905l-19.653-21.68L232.757,179.611z"
					/>
			</g>
			<g>
				<g>
					<path style="fill:#323657;" d="M359.353,305.628c0,0-16.346-15.853-27.066-18.489c-4.956-1.22-11.484-8.061-17.687-16.104
						c-2.044-2.648-4.05-5.428-5.958-8.179c-0.005-0.006-0.005-0.012-0.005-0.012c-7.61-10.988-13.574-21.52-13.574-21.52
						s-22.495-26.362-4.443-38.114c0,0,7.736-0.167,11.98,2.137c4.363,2.369,13.67,21.793,15.248,25.233
						c1.578,3.435,18.673,35.384,19.817,36.102c1.145,0.718,3.053,3.345,9.893,7.027c8.374,4.509,21.529,17.705,21.529,17.705
						L359.353,305.628z"/>
				</g>
			</g>
			<g>
				<path style="fill:#EFAA88;" d="M280.891,323.975c0,0-2.283-0.092-3.262-0.619c0,0-1.708-1.096-2.969-1.801
					c-0.401-0.224-0.756-0.408-0.997-0.504c-1.008-0.399-3.34-0.976-5.49-2.616c-2.149-1.638-9.157-8.193-9.157-8.193l4.529-6.962
					l2.091-6.895c0,0,16.337,1.625,18.517,2.92c0.212,0.127,0.417,0.262,0.6,0.401c1.739,1.275,2.497,2.956,3.334,3.729
					c0.305,0.286,3.15,3.332,2.991,4.567c-0.219,1.715-1.066,2.815-2.13,3.336c0,0-0.576,3.338-2.303,4.831
					c0,0-0.433,3.098-3.107,4.342C283.537,320.511,282.746,323.604,280.891,323.975z"/>
			</g>
			<g>
				<path style="fill:#EEA886;" d="M254.878,113.341c0,0,29.528-7.118,23.309,30.268c-6.221,37.385-13.303,40.42-31.29,32.966
					c-17.988-7.454-16.738-31.366-17.81-43.067C228.015,121.807,245.432,113.887,254.878,113.341z"/>
			</g>
			<g>
				<path style="fill:#EEA886;" d="M239.364,139.232c-0.438-3.284-6.958-4.394-7.409,0.545c-0.451,4.939,3.154,13.544,5.609,12.657
					C240.018,151.546,239.97,143.76,239.364,139.232z"/>
			</g>
			<g>
				<path style="fill:#16202E;" d="M230.811,152.619c0,0,0.592-11.758,4.877-12.188c4.286-0.43,5.016,4.292,5.016,4.292l4.345,0.754
					c0,0-1.521-10.277,2.737-12.139c4.259-1.862,27.843,5.261,31.238,2.188c3.395-3.072,1.47-23.935-4.792-26.702
					c-6.262-2.767-23.533-8.92-35.994-0.216c0,0-9.827-0.975-11.166,6.964C225.733,123.51,228.058,146.771,230.811,152.619z"/>
			</g>
			<g>
				<path style="fill:#323657;" d="M271.208,296.385l-12.192,20.962c0,0-32.299-8.322-39.835-10.448l17.228-20.505
					C236.408,286.393,261.808,292.197,271.208,296.385z"/>
			</g>
			<g>
				<path style="fill:#A77860;" d="M260.126,184.053h-0.004c-15.838-1.615-21.977-13.807-21.977-13.807
					c9.962,9.875,21.894,9.605,21.894,9.605c0,0.305,0.004,0.61,0.004,0.915c0.005,0.5,0.009,0.996,0.017,1.491
					C260.073,182.872,260.096,183.473,260.126,184.053z"/>
			</g>
		</g>
		<g>
			<path style="fill:#4DA8F2;" d="M478.839,369.856c-0.867-1.149-2.237-1.9-3.788-1.919c-2.142-0.028-3.976,1.347-4.627,3.272l0,0
				l0,0c-0.158,0.466-0.246,0.964-0.253,1.483c-0.008,0.604,0.098,1.184,0.294,1.72c0.314,0.857,0.864,1.602,1.573,2.152
				c0.706,0.547,1.567,0.902,2.509,0.987c0.125,0.011,0.252,0.02,0.38,0.02c0.08,0.001,0.16-0.002,0.239-0.005
				c0.027-0.001,0.056,0,0.084-0.001c0.483-0.026,0.948-0.124,1.385-0.282c1.829-0.664,3.146-2.406,3.173-4.468
				C479.822,371.707,479.459,370.68,478.839,369.856z M476.223,376.151l-0.002,0.001c-0.326,0.118-0.674,0.19-1.036,0.211l0,0
				c-0.08,0.004-0.161,0.005-0.242,0.005c-0.343-0.005-0.673-0.06-0.985-0.153c-0.433-0.129-0.832-0.334-1.18-0.603
				c-0.127-0.098-0.246-0.206-0.359-0.319c-0.654-0.664-1.055-1.578-1.041-2.583c0.003-0.262,0.036-0.516,0.093-0.762
				c0.027-0.119,0.058-0.236,0.097-0.351c0.488-1.443,1.862-2.475,3.469-2.454c1.154,0.015,2.176,0.57,2.825,1.421
				c0.475,0.621,0.752,1.397,0.741,2.238C478.582,374.347,477.595,375.653,476.223,376.151z"/>
		</g>
		<g>
			<path style="fill:#EEA886;" d="M294.127,279.168c18.358,18.896,42.61,42.693,42.61,42.693l9.48-17.998
				c0,0-21.542-25.254-36.145-42.105C305.596,263.953,297.378,269.189,294.127,279.168z"/>
		</g>
		<g>
			<g>
				<path style="fill:#EEA886;" d="M282.789,304.576c0,0,4.942,2.388,6.232,3.451c1.29,1.065,6.518,4.979,7.786,5.899
					c1.267,0.921-1.911,3.54-11.26-0.509C276.198,309.368,282.789,304.576,282.789,304.576z"/>
			</g>
		</g>
		<g>
			<polygon style="fill:#FFC955;" points="283.221,250.491 274.607,330.575 387.982,330.575 396.596,250.491 			"/>
		</g>
		<g>
			<path style="fill:#FFC955;" d="M394.454,326.879H280.19l8.708-80.969h114.265L394.454,326.879z M281.175,325.993H393.66
				l8.519-79.199H289.693L281.175,325.993z"/>
		</g>
		<g>
			
				<rect x="265.585" y="323.37" transform="matrix(-1 -1.224647e-16 1.224647e-16 -1 550.1054 653.9453)" style="fill:#FFC955;" width="18.936" height="7.205"/>
		</g>
		<g>
			<g>
				<defs>
					
						<rect id="SVGID_00000081612392994857164190000016650769134819890586_" x="83.418" y="330.409" width="308.121" height="4.879"/>
				</defs>
				<clipPath id="SVGID_00000167357703436853024940000007569043973749439118_">
					<use xlink:href="#SVGID_00000081612392994857164190000016650769134819890586_"  style="overflow:visible;"/>
				</clipPath>
				<path style="clip-path:url(#SVGID_00000167357703436853024940000007569043973749439118_);fill:#96CBFF;" d="M83.418,330.409
					v4.879V330.409z"/>
				
					<rect x="83.418" y="330.409" style="clip-path:url(#SVGID_00000167357703436853024940000007569043973749439118_);fill:#96CBFF;" width="4.74" height="4.879"/>
				
					<rect x="88.158" y="330.409" style="clip-path:url(#SVGID_00000167357703436853024940000007569043973749439118_);fill:#95CAFF;" width="4.74" height="4.879"/>
				
					<rect x="92.898" y="330.409" style="clip-path:url(#SVGID_00000167357703436853024940000007569043973749439118_);fill:#94C9FF;" width="4.74" height="4.879"/>
				
					<rect x="97.639" y="330.409" style="clip-path:url(#SVGID_00000167357703436853024940000007569043973749439118_);fill:#93C9FF;" width="4.74" height="4.879"/>
				
					<rect x="102.379" y="330.409" style="clip-path:url(#SVGID_00000167357703436853024940000007569043973749439118_);fill:#92C8FF;" width="4.74" height="4.879"/>
				
					<rect x="107.119" y="330.409" style="clip-path:url(#SVGID_00000167357703436853024940000007569043973749439118_);fill:#91C7FF;" width="4.74" height="4.879"/>
				
					<rect x="111.859" y="330.409" style="clip-path:url(#SVGID_00000167357703436853024940000007569043973749439118_);fill:#90C6FF;" width="4.74" height="4.879"/>
				
					<rect x="116.6" y="330.409" style="clip-path:url(#SVGID_00000167357703436853024940000007569043973749439118_);fill:#8FC6FF;" width="4.74" height="4.879"/>
				
					<rect x="121.34" y="330.409" style="clip-path:url(#SVGID_00000167357703436853024940000007569043973749439118_);fill:#8EC5FF;" width="4.741" height="4.879"/>
				
					<rect x="126.081" y="330.409" style="clip-path:url(#SVGID_00000167357703436853024940000007569043973749439118_);fill:#8DC4FF;" width="4.74" height="4.879"/>
				
					<rect x="130.821" y="330.409" style="clip-path:url(#SVGID_00000167357703436853024940000007569043973749439118_);fill:#8CC3FF;" width="4.74" height="4.879"/>
				
					<rect x="135.561" y="330.409" style="clip-path:url(#SVGID_00000167357703436853024940000007569043973749439118_);fill:#8BC2FF;" width="4.74" height="4.879"/>
				
					<rect x="140.302" y="330.409" style="clip-path:url(#SVGID_00000167357703436853024940000007569043973749439118_);fill:#8AC2FF;" width="4.74" height="4.879"/>
				
					<rect x="145.042" y="330.409" style="clip-path:url(#SVGID_00000167357703436853024940000007569043973749439118_);fill:#89C1FF;" width="4.74" height="4.879"/>
				
					<rect x="149.782" y="330.409" style="clip-path:url(#SVGID_00000167357703436853024940000007569043973749439118_);fill:#88C0FF;" width="4.74" height="4.879"/>
				
					<rect x="154.522" y="330.409" style="clip-path:url(#SVGID_00000167357703436853024940000007569043973749439118_);fill:#87BFFF;" width="4.74" height="4.879"/>
				
					<rect x="159.263" y="330.409" style="clip-path:url(#SVGID_00000167357703436853024940000007569043973749439118_);fill:#86BFFF;" width="4.74" height="4.879"/>
				
					<rect x="164.003" y="330.409" style="clip-path:url(#SVGID_00000167357703436853024940000007569043973749439118_);fill:#85BEFF;" width="4.74" height="4.879"/>
				
					<rect x="168.743" y="330.409" style="clip-path:url(#SVGID_00000167357703436853024940000007569043973749439118_);fill:#84BDFF;" width="4.74" height="4.879"/>
				
					<rect x="173.483" y="330.409" style="clip-path:url(#SVGID_00000167357703436853024940000007569043973749439118_);fill:#83BCFF;" width="4.741" height="4.879"/>
				
					<rect x="178.225" y="330.409" style="clip-path:url(#SVGID_00000167357703436853024940000007569043973749439118_);fill:#82BBFF;" width="4.74" height="4.879"/>
				
					<rect x="182.965" y="330.409" style="clip-path:url(#SVGID_00000167357703436853024940000007569043973749439118_);fill:#81BBFF;" width="4.74" height="4.879"/>
				
					<rect x="187.705" y="330.409" style="clip-path:url(#SVGID_00000167357703436853024940000007569043973749439118_);fill:#80BAFF;" width="4.74" height="4.879"/>
				
					<rect x="192.445" y="330.409" style="clip-path:url(#SVGID_00000167357703436853024940000007569043973749439118_);fill:#7FB9FF;" width="4.74" height="4.879"/>
				
					<rect x="197.186" y="330.409" style="clip-path:url(#SVGID_00000167357703436853024940000007569043973749439118_);fill:#7EB8FF;" width="4.74" height="4.879"/>
				
					<rect x="201.926" y="330.409" style="clip-path:url(#SVGID_00000167357703436853024940000007569043973749439118_);fill:#7DB7FF;" width="4.74" height="4.879"/>
				
					<rect x="206.666" y="330.409" style="clip-path:url(#SVGID_00000167357703436853024940000007569043973749439118_);fill:#7CB7FF;" width="4.74" height="4.879"/>
				
					<rect x="211.406" y="330.409" style="clip-path:url(#SVGID_00000167357703436853024940000007569043973749439118_);fill:#7BB6FF;" width="4.74" height="4.879"/>
				
					<rect x="216.146" y="330.409" style="clip-path:url(#SVGID_00000167357703436853024940000007569043973749439118_);fill:#7AB5FF;" width="4.74" height="4.879"/>
				
					<rect x="220.887" y="330.409" style="clip-path:url(#SVGID_00000167357703436853024940000007569043973749439118_);fill:#79B4FF;" width="4.74" height="4.879"/>
				
					<rect x="225.627" y="330.409" style="clip-path:url(#SVGID_00000167357703436853024940000007569043973749439118_);fill:#78B4FF;" width="4.741" height="4.879"/>
				
					<rect x="230.368" y="330.409" style="clip-path:url(#SVGID_00000167357703436853024940000007569043973749439118_);fill:#77B3FF;" width="4.74" height="4.879"/>
				
					<rect x="235.108" y="330.409" style="clip-path:url(#SVGID_00000167357703436853024940000007569043973749439118_);fill:#76B2FF;" width="4.74" height="4.879"/>
				
					<rect x="239.849" y="330.409" style="clip-path:url(#SVGID_00000167357703436853024940000007569043973749439118_);fill:#74B1FF;" width="4.74" height="4.879"/>
				
					<rect x="244.589" y="330.409" style="clip-path:url(#SVGID_00000167357703436853024940000007569043973749439118_);fill:#73B0FF;" width="4.74" height="4.879"/>
				
					<rect x="249.329" y="330.409" style="clip-path:url(#SVGID_00000167357703436853024940000007569043973749439118_);fill:#72B0FF;" width="4.74" height="4.879"/>
				
					<rect x="254.069" y="330.409" style="clip-path:url(#SVGID_00000167357703436853024940000007569043973749439118_);fill:#71AFFF;" width="4.74" height="4.879"/>
				
					<rect x="258.809" y="330.409" style="clip-path:url(#SVGID_00000167357703436853024940000007569043973749439118_);fill:#70AEFF;" width="4.74" height="4.879"/>
				
					<rect x="263.55" y="330.409" style="clip-path:url(#SVGID_00000167357703436853024940000007569043973749439118_);fill:#6FADFF;" width="4.74" height="4.879"/>
				
					<rect x="268.29" y="330.409" style="clip-path:url(#SVGID_00000167357703436853024940000007569043973749439118_);fill:#6EADFF;" width="4.74" height="4.879"/>
				
					<rect x="273.03" y="330.409" style="clip-path:url(#SVGID_00000167357703436853024940000007569043973749439118_);fill:#6DACFF;" width="4.741" height="4.879"/>
				
					<rect x="277.771" y="330.409" style="clip-path:url(#SVGID_00000167357703436853024940000007569043973749439118_);fill:#6CABFF;" width="4.74" height="4.879"/>
				
					<rect x="282.512" y="330.409" style="clip-path:url(#SVGID_00000167357703436853024940000007569043973749439118_);fill:#6BAAFF;" width="4.74" height="4.879"/>
				
					<rect x="287.252" y="330.409" style="clip-path:url(#SVGID_00000167357703436853024940000007569043973749439118_);fill:#6AA9FF;" width="4.74" height="4.879"/>
				
					<rect x="291.992" y="330.409" style="clip-path:url(#SVGID_00000167357703436853024940000007569043973749439118_);fill:#69A9FF;" width="4.74" height="4.879"/>
				
					<rect x="296.732" y="330.409" style="clip-path:url(#SVGID_00000167357703436853024940000007569043973749439118_);fill:#68A8FF;" width="4.74" height="4.879"/>
				
					<rect x="301.473" y="330.409" style="clip-path:url(#SVGID_00000167357703436853024940000007569043973749439118_);fill:#67A7FF;" width="4.74" height="4.879"/>
				
					<rect x="306.213" y="330.409" style="clip-path:url(#SVGID_00000167357703436853024940000007569043973749439118_);fill:#66A6FF;" width="4.74" height="4.879"/>
				
					<rect x="310.953" y="330.409" style="clip-path:url(#SVGID_00000167357703436853024940000007569043973749439118_);fill:#65A6FF;" width="4.74" height="4.879"/>
				
					<rect x="315.693" y="330.409" style="clip-path:url(#SVGID_00000167357703436853024940000007569043973749439118_);fill:#64A5FF;" width="4.74" height="4.879"/>
				
					<rect x="320.434" y="330.409" style="clip-path:url(#SVGID_00000167357703436853024940000007569043973749439118_);fill:#63A4FF;" width="4.74" height="4.879"/>
				
					<rect x="325.174" y="330.409" style="clip-path:url(#SVGID_00000167357703436853024940000007569043973749439118_);fill:#62A3FF;" width="4.741" height="4.879"/>
				
					<rect x="329.915" y="330.409" style="clip-path:url(#SVGID_00000167357703436853024940000007569043973749439118_);fill:#61A2FF;" width="4.74" height="4.879"/>
				
					<rect x="334.655" y="330.409" style="clip-path:url(#SVGID_00000167357703436853024940000007569043973749439118_);fill:#60A2FF;" width="4.74" height="4.879"/>
				
					<rect x="339.395" y="330.409" style="clip-path:url(#SVGID_00000167357703436853024940000007569043973749439118_);fill:#5FA1FF;" width="4.74" height="4.879"/>
				
					<rect x="344.136" y="330.409" style="clip-path:url(#SVGID_00000167357703436853024940000007569043973749439118_);fill:#5EA0FF;" width="4.74" height="4.879"/>
				
					<rect x="348.876" y="330.409" style="clip-path:url(#SVGID_00000167357703436853024940000007569043973749439118_);fill:#5D9FFF;" width="4.74" height="4.879"/>
				
					<rect x="353.616" y="330.409" style="clip-path:url(#SVGID_00000167357703436853024940000007569043973749439118_);fill:#5C9EFF;" width="4.74" height="4.879"/>
				
					<rect x="358.356" y="330.409" style="clip-path:url(#SVGID_00000167357703436853024940000007569043973749439118_);fill:#5B9EFF;" width="4.74" height="4.879"/>
				
					<rect x="363.097" y="330.409" style="clip-path:url(#SVGID_00000167357703436853024940000007569043973749439118_);fill:#5A9DFF;" width="4.74" height="4.879"/>
				
					<rect x="367.837" y="330.409" style="clip-path:url(#SVGID_00000167357703436853024940000007569043973749439118_);fill:#599CFF;" width="4.74" height="4.879"/>
				
					<rect x="372.577" y="330.409" style="clip-path:url(#SVGID_00000167357703436853024940000007569043973749439118_);fill:#589BFF;" width="4.74" height="4.879"/>
				
					<rect x="377.317" y="330.409" style="clip-path:url(#SVGID_00000167357703436853024940000007569043973749439118_);fill:#579BFF;" width="4.741" height="4.879"/>
				
					<rect x="382.059" y="330.409" style="clip-path:url(#SVGID_00000167357703436853024940000007569043973749439118_);fill:#569AFF;" width="4.74" height="4.879"/>
				
					<rect x="386.799" y="330.409" style="clip-path:url(#SVGID_00000167357703436853024940000007569043973749439118_);fill:#5599FF;" width="4.74" height="4.879"/>
				<path style="clip-path:url(#SVGID_00000167357703436853024940000007569043973749439118_);fill:#5599FF;" d="M391.539,335.288
					v-4.879V335.288z"/>
			</g>
		</g>
		<g>
			<rect x="312.868" y="434.524" style="fill:#FFC955;" width="266.961" height="4.88"/>
		</g>
		<g>
			<path style="fill:#CFA345;" d="M329.306,289.247c-0.911,4.458,1.169,8.649,4.646,9.359c3.477,0.711,7.034-2.328,7.945-6.787
				c0.911-4.459-1.169-8.65-4.646-9.36C333.774,281.748,330.218,284.787,329.306,289.247z"/>
		</g>
		<g>
			<g>
				<g>
					<path style="fill:#6069A8;" d="M545.534,257.504c0,0,2.615,4.433,3.72,5.158c1.498,0.982,0.56,1.976-0.152,1.976
						c-0.712,0.001-4.348,0.262-5.148-0.647c-0.801-0.908-1.198-3.633-1.943-4.346c-0.745-0.712-1.515-3.545,0.363-4.233
						C544.032,254.804,545.534,257.504,545.534,257.504z"/>
				</g>
			</g>
		</g>
		<g>
			<g>
				<g>
					<path style="fill:#202338;" d="M544.401,255.554c0,0,2.995,5.192,3.512,5.959c0.516,0.767-0.972,0.766-1.895,0.4
						c-0.922-0.363-3.241-4.087-3.575-4.766c-0.397-0.809-0.07-1.736-0.07-1.736L544.401,255.554z"/>
				</g>
			</g>
		</g>
		<g>
			<g>
				<g>
					<polygon style="fill:#6069A8;" points="541.367,258.348 542.059,263.671 542.425,263.686 542.31,259.857 					"/>
				</g>
			</g>
		</g>
		<g>
			<g>
				<g>
					<path style="fill:#6069A8;" d="M519.6,257.504c0,0,2.615,4.433,3.72,5.158c1.499,0.982,0.56,1.976-0.152,1.976
						c-0.712,0.001-4.347,0.262-5.148-0.647c-0.802-0.908-1.198-3.633-1.943-4.346c-0.745-0.712-1.54-3.618,0.362-4.233
						C518.107,254.872,519.6,257.504,519.6,257.504z"/>
				</g>
			</g>
		</g>
		<g>
			<g>
				<g>
					<path style="fill:#202338;" d="M518.625,255.565c0,0,2.838,5.181,3.354,5.949c0.517,0.767-0.972,0.766-1.894,0.4
						c-0.923-0.363-3.242-4.087-3.575-4.766c-0.397-0.809-0.071-1.736-0.071-1.736L518.625,255.565z"/>
				</g>
			</g>
		</g>
		<g>
			<g>
				<g>
					<polygon style="fill:#6069A8;" points="515.434,258.348 516.125,263.671 516.491,263.686 516.377,259.857 					"/>
				</g>
			</g>
		</g>
		<g>
			<g>
				<g>
					<path style="fill:#202338;" d="M507.997,217.157l23.666,10.784c0,0,2.642,0.859,2.938,3.792
						c0.924,9.155,7.772,23.679,7.772,23.679c2.197,1.075,2.028,0.142,2.028,0.142c-1.385-4.445-3.07-22.765-3.672-30.13
						c-0.127-1.56-0.206-2.628-0.223-2.97c-0.012-0.232-0.267-0.537-0.705-0.892c-3.247-2.633-16.609-8.085-16.609-8.085
						C513.159,213.223,507.997,217.157,507.997,217.157z"/>
				</g>
			</g>
		</g>
		<g>
			<g>
				<g>
					<path style="fill:#202338;" d="M503.536,221.788c0.732,6.397,9.864,5.664,9.864,5.664h11.066c0,0-2.906,6.469-4.029,11.925
						c-1.19,5.79-3.999,16.035-3.999,16.035s0.185,0.348,2.187,0.153c0,0,8.688-17.314,12.013-21.667
						c0.715-0.937,2.766-6.021,3.118-9.054c0.119-1.021,0.046-1.809-0.335-2.128c-0.384-0.322-1.267-0.928-2.443-1.67
						c-3.467-2.186-9.486-5.551-12.841-6.305c-4.492-1.01-11.598-2.902-11.598-2.902S502.804,215.391,503.536,221.788z"/>
				</g>
			</g>
		</g>
		<g>
			<path style="fill:#464240;" d="M511.068,172.516c0,0-1.657-3.145-0.85-6.494c0.808-3.349,3.915-6.686,8.465-5.154
				c4.551,1.533,8.229,5.067,5.501,9.154c-2.728,4.087,2.468,5.933,1.145,7.878c-1.325,1.945-0.822,3.975-0.262,4.428
				c0.56,0.452,2.368,2.065,2.17,3.975c-0.199,1.91-8.828-5.564-8.828-5.564S513.71,171.295,511.068,172.516z"/>
		</g>
		<g>
			<path style="fill:#EB4747;" d="M524.936,212.71c0,0-0.685,3.329-18.361-0.874C506.575,211.836,512.501,209.868,524.936,212.71z"
				/>
		</g>
		<g>
			<g>
				<path style="fill:#5F8CC9;" d="M506.375,212.77c-0.274,0.523-0.548,1.046-0.822,1.57c6.462,0.188,12.923,0.376,19.384,0.564
					c-1.021-3.422-0.69-8.057-0.512-11.575c0.219-4.296,2.592-7.284,2.339-11.629c1.278,0.206,1.499,0.246,2.779,0.442
					c-1.957-5.578-2.628-8.342-8.71-10.489c-1.979-0.699-3.281-0.837-5.424-0.661c-7.044,0.581-9.168,0.664-12.627,7.046
					c5.415,0.862,4.523,2.807,6.166,8.194c0.801,2.627,1.637,5.559,1.207,8.33C509.733,207.29,506.375,210.282,506.375,212.77z"/>
			</g>
		</g>
		<g>
			<g>
				<path style="fill:#EEA886;" d="M517.615,183.005c-2.883-0.545-2.269-2.148-2.269-2.148s0.134-0.905,0.185-2.049
					c0.014-0.293,0.021-0.602,0.021-0.915c-0.002-0.475-0.024-0.961-0.08-1.418c-0.235-1.935,5.233-0.781,5.233-0.781
					s-0.315,3.915,0.438,5.088C521.897,181.957,520.498,183.549,517.615,183.005z"/>
			</g>
		</g>
		<g>
			<g>
				<path style="fill:#EEA886;" d="M512.116,180.847c0,0,5.814,6.714,7.964,8.27c0,0,2.47-2.232,0.947-8.125
					C521.027,180.992,518.221,179.586,512.116,180.847z"/>
			</g>
		</g>
		<g>
			<path style="fill:#EEA886;" d="M512.274,164.688c0,0-3.02,5.818-0.024,11.329c2.995,5.511,8.879-2.4,9.26-3.328
				c0.381-0.928,2.398-6.178-1.615-7.773C515.881,163.32,513.129,163.109,512.274,164.688z"/>
		</g>
		<g>
			<path style="fill:#464240;" d="M513.278,166.752c0,0-2.078,2.73-2.324,4.747c0,0-0.828-3.814,1.512-7.479
				c2.34-3.665,8.289-0.174,9.086,1.29c0.797,1.464,3.132,2.754-0.791,9.046C520.761,174.357,513.705,169.455,513.278,166.752z"/>
		</g>
		<g>
			<path style="fill:#A77860;" d="M518.104,176.598c0,0-0.524,1.145-2.573,2.211c0.014-0.293,0.021-0.602,0.021-0.915
				C515.552,177.894,516.938,177.726,518.104,176.598z"/>
		</g>
		<g>
			<path style="fill:#EEA886;" d="M487.586,207.535c0,0-1.435,0.638-2.116,0.349s-1.733-0.346-2.065-0.347
				c-0.444-0.001-1.834-0.497-1.81,0.046c0.023,0.543,2.256,0.922,2.713,1.091c0.457,0.169-1.366,1.173-1.536,1.619
				c-0.17,0.446,1.889,3.373,3.05,2.539c1.161-0.834,1.79-2.499,2.026-2.604c0.236-0.106,0.871-0.573,0.871-0.573L487.586,207.535z"
				/>
		</g>
		<g>
			<path style="fill:#EEA886;" d="M482.991,210.035c0,0-3.366,2.792-3.419,3.168c-0.053,0.376,0.124,0.553,0.451,0.305
				c0.326-0.248,3.338-2.602,3.338-2.602s-3.373,3.984-3.486,4.28c-0.066,0.173,0.257,0.533,0.445,0.417s3.775-3.867,3.775-3.867
				s-3.142,3.726-3.159,4.004c-0.015,0.244,0.363,0.507,0.617,0.247c0.254-0.26,3.381-3.547,3.381-3.547s-2.102,2.86-1.973,3.112
				c0.079,0.154,0.345,0.477,0.862-0.279c0.518-0.756,1.94-2.404,1.94-2.404L482.991,210.035z"/>
		</g>
		<g>
			<g>
				<path style="fill:#FFC955;" d="M523.313,227.453H513.4c0,0-9.132,0.732-9.863-5.664c-0.733-6.397,3.002-9.949,3.002-9.949
					s4.824,1.285,9.035,2.302c2.109-0.448,4.65-0.74,7.618-0.665c0,0,17.852,5.899,17.315,9.005
					C540.508,222.482,533.04,218.489,523.313,227.453z"/>
			</g>
		</g>
		<g>
			<polygon style="fill:#5E5853;" points="516.86,216.375 535.759,216.098 526.217,220.942 			"/>
		</g>
		<g>
			<path style="fill:#5F8CC9;" d="M522.731,213.961c0,0-4.251,1.646-9.463,0.158l-0.244-1.946l10.729,0.596L522.731,213.961z"/>
		</g>
		<g>
			<polygon style="fill:#91887F;" points="526.217,220.942 516.86,217.318 516.86,216.375 526.957,220.018 			"/>
		</g>
		<g>
			<g>
				<path style="fill:#EDDAD3;" d="M522.666,214.861c-0.051,0.698,0.655,1.202,1.299,0.927l1.098-0.469
					c0.33-0.141,0.521-0.488,0.465-0.843c-0.457-2.858-1.438-13.985-0.005-15.895c0.529-0.706,0.86-1.324,1.047-1.865
					c0.945,2.438,2.122,5.58,2.59,7.27l8.929,11.878l2.993,0.759c-3.735-9.001-6.736-13.77-6.736-13.77
					c-0.584-1.569-2.26-6.319-3.743-10.549c-0.938-2.67-1.798-5.133-2.261-6.458c-0.233-0.67-0.696-1.237-1.306-1.601
					c-1.383-0.827-3.688-2.129-5.777-3.144c-0.009-0.004-0.017-0.007-0.025-0.012c-0.066-0.033-0.133-0.065-0.2-0.097
					c-0.002-0.001-0.003-0.001-0.003-0.001c-0.001-0.001-0.002-0.001-0.002-0.001c3.974,6.012,2.424,22.99,1.64,33.846
					C522.667,214.845,522.666,214.854,522.666,214.861z"/>
			</g>
			<g>
				<path style="fill:#EDDAD3;" d="M507.916,181.505c-1.273,0.197-4.429,3.26-6.104,6.353c-1.913,3.529-3.859,7.548-5.319,8.87
					c-2.684,2.431-10.193,11.024-10.551,10.816c-0.137-0.08,2.06,2.566,2.339,2.689c0.14,0.061,12.345-10.515,13.518-12.126
					c1.111-1.528,4.084-7.939,4.974-7.798c0,0,0,0.002,0.002,0.004c0,0.001,0.001,0.002,0.001,0.002
					c0.067,0.145,1.148,2.49,2.174,5.917c0.017,0.057,0.034,0.113,0.051,0.17c0.706,2.39,0.641,4.985,0.259,7.9
					c-0.289,2.202-1.932,5.799-2.923,7.55c-0.119,0.21-0.089,0.611,0.04,0.916c0,0,0,0,0,0c0.077,0.183,0.189,0.33,0.325,0.38
					l3.584,1.328l0.842,0.312c0.606,0.225,1.242,0.108,1.717-0.237c0.39-0.282,0.672-0.719,0.74-1.245
					c0.797-6.129,1.805-12.391,2.608-14.75c3.525-10.351-1.378-18.128-1.378-18.128S509.033,181.088,507.916,181.505z"/>
			</g>
		</g>
		<g>
			<polygon style="fill:#6E6760;" points="526.217,220.942 531.838,205.595 549.96,205.891 544.602,220.034 			"/>
		</g>
		<g>
			<path style="fill:#807066;" d="M537.637,212.384c-0.553,1.105-0.387,2.31,0.373,2.689c0.759,0.38,1.822-0.208,2.375-1.314
				c0.554-1.106,0.387-2.31-0.373-2.689C539.253,210.69,538.189,211.279,537.637,212.384z"/>
		</g>
		<g>
			<path style="fill:#464240;" d="M518.534,170.481c0,0,1.161,1.806,0.088,3.365c-1.073,1.559,0.271,3.09,0.503,4.738
				c0.233,1.648-4.476,6.032,0.761,8.238c5.237,2.206,6.904-1.44,5.568-3.447c-1.336-2.006-2.284-3.634-2.398-6.496
				C522.943,174.018,522.002,169.559,518.534,170.481z"/>
		</g>
		<g>
			<polygon style="fill:#FFCB55;" points="492.936,162.984 503.863,162.984 503.863,170.903 503.863,172.572 502.195,170.903 
				492.936,170.903 			"/>
		</g>
		<g>
			<g>
				<g>
					<g>
						<g>
							<path style="fill:#BBD070;" d="M431.603,284.512c0,0-23.814,22.661-12.229,40.306c11.585,17.645,17.006,2.189,17.006,2.189
								s7.835,2.365-3.794-19.39C427.105,297.363,431.603,284.512,431.603,284.512z"/>
						</g>
					</g>
				</g>
			</g>
			<g>
				<g>
					<g>
						<g>
							<path style="fill:#97A43C;" d="M387.572,259.943c0,0-18.191,21.378,6.13,50.983c24.321,29.605,20.551,45.254,20.551,45.254
								S448.109,304.709,387.572,259.943z"/>
						</g>
					</g>
				</g>
			</g>
			<g>
				<g>
					<g>
						<g>
							<path style="fill:#48753A;" d="M419.737,347.243c11.317,2.288,2.16-30.621-14.812-40.654
								c-16.972-10.034-32.156-11.012-41.663-20.674C363.262,285.915,364.003,335.972,419.737,347.243z"/>
						</g>
					</g>
				</g>
			</g>
		</g>
		<g>
			<g>
				<g>
					<g>
						<path style="fill:#EEA886;" d="M345.77,361.677c0,0,0.52-1.285,0.604-1.479c0.085-0.193,0.585-0.509,1.189-0.822
							c0.605-0.313,1.563-0.465,1.666-0.407c0.103,0.057,0.232,0.066,0.365,0.338c0.132,0.27,0.095,0.572,0.095,0.572
							s0.32,0.257,0.247,0.626c0,0,0.29,0.256,0.138,0.66c0,0,0.276,0.258,0.141,0.542c0,0-0.5,0.317-0.651,0.489
							c-0.151,0.171-1.236,0.76-2.364,1.165C347.199,363.36,346.004,363.383,345.77,361.677z"/>
					</g>
				</g>
			</g>
			<g>
				<g>
					<g>
						<path style="fill:#CF8C6C;" d="M347.609,360.976c0,0,0.013,0.696-0.083,0.893c-0.095,0.198,1.412,0.636,1.412,0.636
							S348.456,360.982,347.609,360.976z"/>
					</g>
				</g>
			</g>
			<g>
				<g>
					<g>
						<polygon style="fill:#3B3F66;" points="319.493,429.021 320.151,426.972 322.934,427.422 322.518,429.271 						"/>
					</g>
				</g>
			</g>
			<g>
				<g>
					<g>
						<polygon style="fill:#555C94;" points="342.313,428.779 342.469,429.905 345.516,429.397 345.353,427.715 						"/>
					</g>
				</g>
			</g>
			<g>
				<g>
					<g>
						<g>
							<path style="fill:#354C70;" d="M335.712,397.213c0,0-0.448,2.446-0.97,5.161c-0.091,0.473-0.183,0.954-0.276,1.432
								c-0.509,2.616-1.023,5.133-1.214,5.653c-0.432,1.184-9.764,18.283-9.764,18.283s-3.816-0.291-3.959-0.781
								c0,0,7.823-18.567,7.778-19.244c-0.043-0.676,0.956-19.71,0.956-19.71S335.506,396.114,335.712,397.213z"/>
						</g>
					</g>
				</g>
			</g>
			<g>
				<g>
					<g>
						<g>
							<path style="fill:#354C70;" d="M339.976,386.919c0,0,3.651,18.698,3.964,20.129c0.313,1.432,1.695,20.585,1.695,20.585
								s-0.82,1.692-3.852,1.056c0,0-4.133-20.579-4.482-21.27c-1.352-2.676-7.985-15.641-8.629-17.491
								c-0.643-1.851-0.454-4.01-0.454-4.01S333.148,383.148,339.976,386.919z"/>
						</g>
					</g>
				</g>
			</g>
			<g>
				<g>
					<g>
						<g>
							<path style="fill:#DEB135;" d="M338.441,362.701c0,0,1.601,3.992,2.004,3.875c0.402-0.119,5.005-5.523,5.005-5.523
								s2.105,2.628,1.823,2.93c-0.393,0.42-5.828,9.457-6.576,9.294c-0.748-0.163-4.09-5.688-4.09-5.688
								S336.418,363.423,338.441,362.701z"/>
						</g>
					</g>
				</g>
			</g>
			<g>
				<g>
					<g>
						<g>
							<path style="fill:#F2C344;" d="M331.592,355.077c0,0,4.153,3.175,5.3,4.434c1.145,1.259,4.309,6.48,4.081,8.051
								c-0.874,6.022-1.29,11.153-1.316,15.262c-0.023,3.579,1.117,4.492,0.407,4.545c-0.815,0.062-11.266,3.849-12.813,4.31
								c0,0,1.014-12.603,1.527-14.057C329.292,376.167,327.135,360.928,331.592,355.077z"/>
						</g>
					</g>
				</g>
			</g>
			<g>
				<g>
					<g>
						<path style="fill:#D9D0C4;" d="M358.34,349.057l0.932,4.694l0.932,4.695c0,0-5.332-1.669-11.383-0.468l-0.411-2.07
							l-0.414-2.083C354.047,352.623,358.34,349.057,358.34,349.057z"/>
					</g>
				</g>
			</g>
			<g>
				<g>
					<g>
						<path style="fill:#84BDFF;" d="M342.469,429.905c0,0,2.3-0.445,2.381-0.515c0.08-0.07,0.574-0.978,0.93-0.82
							c0.355,0.158,0.36,1.264,0.708,1.451c0.348,0.188,3.093,2.042,3.431,2.38c0.337,0.338,2.417,0.139,2.655,0.726
							c0.238,0.587,0.258,1.974-2.844,1.647c-3.103-0.326-6.645,0.178-7.313-0.188C341.749,434.22,342.255,430.798,342.469,429.905z
							"/>
					</g>
				</g>
			</g>
			<g>
				<g>
					<g>
						<path style="fill:#84BDFF;" d="M319.456,428.971c0,0,2.343-0.071,2.433-0.128c0.091-0.056,0.724-0.874,1.05-0.66
							c0.325,0.214,0.153,1.306,0.466,1.547c0.313,0.239,2.728,2.511,3.006,2.897c0.279,0.388,2.363,0.524,2.505,1.142
							c0.142,0.617-0.06,1.989-3.07,1.171c-3.01-0.818-6.587-0.888-7.188-1.355C318.057,433.114,319.102,429.818,319.456,428.971z"
							/>
					</g>
				</g>
			</g>
			<g>
				<g>
					<g>
						<g>
							<path style="fill:#EEA987;" d="M337.645,387.785c0,0,0.28,1.139,0.73,1.386c0.449,0.247-2.096,2.681-2.096,2.681
								s-1.033-2.256-1.005-2.483C335.303,389.141,337.645,387.785,337.645,387.785z"/>
						</g>
					</g>
				</g>
			</g>
			<g>
				<g>
					<g>
						<g>
							<path style="fill:#FFD255;" d="M329.747,360c0,0-2.98,14.178-3.225,15.63c-0.231,1.374,8.738,14.491,8.738,14.491l2.982-1.77
								c0,0-7.237-13.16-7.227-13.761c0.01-0.601,3.474-12.03,3.474-12.03s1.447-2.488-1.12-3.697
								C330.802,357.655,329.747,360,329.747,360z"/>
						</g>
					</g>
				</g>
			</g>
			<g>
				<g>
					<g>
						<path style="fill:#3C5780;" d="M339.393,388.764c0,0,0.97,4.821,0.91,6.298s-5.564-2.323-5.285-3.793L339.393,388.764z"/>
					</g>
				</g>
			</g>
			<g>
				<g>
					<g>
						<g>
							<g>
								<path style="fill:#EEA886;" d="M331.592,355.077c0,0,7.564,8.263,7.099,7.347c-1.661-3.266-2.82-3.816-2.797-4.426
									c0.019-0.467,0.2-1.825,0.232-2.28c0.059-0.866,0.123-1.569,0.123-1.569s-3.756-5.275-3.59-3.478
									C332.823,352.468,331.592,355.077,331.592,355.077z"/>
							</g>
						</g>
					</g>
				</g>
			</g>
			<g>
				<g>
					<g>
						<g>
							<g>
								<path style="fill:#EEA886;" d="M338.796,345.351c0,0,1.04,2.441,1.055,3.013c0.015,0.571-0.13,1.01-0.041,1.668
									c0.092,0.682,0.663,2.112,0.593,2.508c-0.085,0.479-1.092,0.229-1.23,1.018c-0.139,0.787-0.871,2.268-1.235,2.298
									c-0.936,0.076-4.522-1.386-4.751-2.136c-0.228-0.751-1.527-4.934-1.932-5.729s6.317-5.155,6.93-3.897
									C338.796,345.351,338.796,345.351,338.796,345.351z"/>
							</g>
						</g>
					</g>
				</g>
			</g>
			<g>
				<g>
					<g>
						<path style="fill:#16202E;" d="M329.655,347.162c-0.475-2.071,1.906-2.326,1.906-2.326s1.551-1.806,5.261-1.591
							c3.71,0.214,3.144,5.056,3.144,5.056s-2.566-0.384-3.683-0.101c0,0-0.137,2.067-0.016,2.58l-1.4-0.125
							c0,0,0.156-1.835-0.516-1.922c-0.672-0.087-0.897,3.885-2.148,4.76c0,0-0.013-0.28-0.169-0.555l0,0l0,0
							c-0.25-0.438-0.638-1.17-0.973-2.026C330.517,349.712,329.898,348.223,329.655,347.162z"/>
					</g>
				</g>
			</g>
			<g>
				<g>
					<g>
						<g>
							<g>
								<path style="fill:#EEA886;" d="M335.285,349.177c0,0-0.52-1.4-1.751-0.492c-0.896,0.662,0.025,3.026,0.896,3.015
									C335.302,351.689,335.655,350.401,335.285,349.177z"/>
							</g>
						</g>
					</g>
				</g>
			</g>
			<g>
				<g>
					<g>
						<path style="fill:#C48A6F;" d="M332.983,353.064c0,0,0.184,0.744,0.384,0.917c0.2,0.175,1.142,0.938,2.777,1.452l-0.146,1.467
							C335.999,356.899,332.82,355.673,332.983,353.064z"/>
					</g>
				</g>
			</g>
			<g>
				<g>
					<g>
						<g>
							<defs>
								<path id="SVGID_00000050648364763412247510000009066076248006236350_" d="M349.664,363.113l0.534-0.254l-2.42-5.134
									l-1.356,0.639l2.051,4.353C348.701,363.201,349.18,363.342,349.664,363.113z"/>
							</defs>
							<clipPath id="SVGID_00000078015783657608122740000010232120974472136071_">
								<use xlink:href="#SVGID_00000050648364763412247510000009066076248006236350_"  style="overflow:visible;"/>
							</clipPath>
							<path style="clip-path:url(#SVGID_00000078015783657608122740000010232120974472136071_);fill:#96CBFF;" d="M346.422,357.726
								v5.616V357.726z"/>
							
								<rect x="346.422" y="357.726" style="clip-path:url(#SVGID_00000078015783657608122740000010232120974472136071_);fill:#96CBFF;" width="0.058" height="5.616"/>
							
								<rect x="346.479" y="357.726" style="clip-path:url(#SVGID_00000078015783657608122740000010232120974472136071_);fill:#95CAFF;" width="0.059" height="5.616"/>
							
								<rect x="346.538" y="357.726" style="clip-path:url(#SVGID_00000078015783657608122740000010232120974472136071_);fill:#94C9FF;" width="0.058" height="5.616"/>
							
								<rect x="346.596" y="357.726" style="clip-path:url(#SVGID_00000078015783657608122740000010232120974472136071_);fill:#93C9FF;" width="0.059" height="5.616"/>
							
								<rect x="346.654" y="357.726" style="clip-path:url(#SVGID_00000078015783657608122740000010232120974472136071_);fill:#92C8FF;" width="0.058" height="5.616"/>
							
								<rect x="346.712" y="357.726" style="clip-path:url(#SVGID_00000078015783657608122740000010232120974472136071_);fill:#91C7FF;" width="0.059" height="5.616"/>
							
								<rect x="346.77" y="357.726" style="clip-path:url(#SVGID_00000078015783657608122740000010232120974472136071_);fill:#90C6FF;" width="0.058" height="5.616"/>
							
								<rect x="346.828" y="357.726" style="clip-path:url(#SVGID_00000078015783657608122740000010232120974472136071_);fill:#8FC6FF;" width="0.059" height="5.616"/>
							
								<rect x="346.887" y="357.726" style="clip-path:url(#SVGID_00000078015783657608122740000010232120974472136071_);fill:#8EC5FF;" width="0.058" height="5.616"/>
							
								<rect x="346.944" y="357.726" style="clip-path:url(#SVGID_00000078015783657608122740000010232120974472136071_);fill:#8DC4FF;" width="0.059" height="5.616"/>
							
								<rect x="347.003" y="357.726" style="clip-path:url(#SVGID_00000078015783657608122740000010232120974472136071_);fill:#8CC3FF;" width="0.058" height="5.616"/>
							
								<rect x="347.06" y="357.726" style="clip-path:url(#SVGID_00000078015783657608122740000010232120974472136071_);fill:#8BC2FF;" width="0.059" height="5.616"/>
							
								<rect x="347.119" y="357.726" style="clip-path:url(#SVGID_00000078015783657608122740000010232120974472136071_);fill:#8AC2FF;" width="0.058" height="5.616"/>
							
								<rect x="347.177" y="357.726" style="clip-path:url(#SVGID_00000078015783657608122740000010232120974472136071_);fill:#89C1FF;" width="0.059" height="5.616"/>
							
								<rect x="347.235" y="357.726" style="clip-path:url(#SVGID_00000078015783657608122740000010232120974472136071_);fill:#88C0FF;" width="0.058" height="5.616"/>
							
								<rect x="347.293" y="357.726" style="clip-path:url(#SVGID_00000078015783657608122740000010232120974472136071_);fill:#87BFFF;" width="0.059" height="5.616"/>
							
								<rect x="347.352" y="357.726" style="clip-path:url(#SVGID_00000078015783657608122740000010232120974472136071_);fill:#86BFFF;" width="0.058" height="5.616"/>
							
								<rect x="347.409" y="357.726" style="clip-path:url(#SVGID_00000078015783657608122740000010232120974472136071_);fill:#85BEFF;" width="0.058" height="5.616"/>
							
								<rect x="347.467" y="357.726" style="clip-path:url(#SVGID_00000078015783657608122740000010232120974472136071_);fill:#84BDFF;" width="0.059" height="5.616"/>
							
								<rect x="347.525" y="357.726" style="clip-path:url(#SVGID_00000078015783657608122740000010232120974472136071_);fill:#83BCFF;" width="0.059" height="5.616"/>
							
								<rect x="347.584" y="357.726" style="clip-path:url(#SVGID_00000078015783657608122740000010232120974472136071_);fill:#82BBFF;" width="0.058" height="5.616"/>
							
								<rect x="347.642" y="357.726" style="clip-path:url(#SVGID_00000078015783657608122740000010232120974472136071_);fill:#81BBFF;" width="0.058" height="5.616"/>
							
								<rect x="347.699" y="357.726" style="clip-path:url(#SVGID_00000078015783657608122740000010232120974472136071_);fill:#80BAFF;" width="0.059" height="5.616"/>
							
								<rect x="347.758" y="357.726" style="clip-path:url(#SVGID_00000078015783657608122740000010232120974472136071_);fill:#7FB9FF;" width="0.059" height="5.616"/>
							
								<rect x="347.816" y="357.726" style="clip-path:url(#SVGID_00000078015783657608122740000010232120974472136071_);fill:#7EB8FF;" width="0.058" height="5.616"/>
							
								<rect x="347.874" y="357.726" style="clip-path:url(#SVGID_00000078015783657608122740000010232120974472136071_);fill:#7DB7FF;" width="0.058" height="5.616"/>
							
								<rect x="347.932" y="357.726" style="clip-path:url(#SVGID_00000078015783657608122740000010232120974472136071_);fill:#7CB7FF;" width="0.059" height="5.616"/>
							
								<rect x="347.99" y="357.726" style="clip-path:url(#SVGID_00000078015783657608122740000010232120974472136071_);fill:#7BB6FF;" width="0.059" height="5.616"/>
							
								<rect x="348.049" y="357.726" style="clip-path:url(#SVGID_00000078015783657608122740000010232120974472136071_);fill:#7AB5FF;" width="0.058" height="5.616"/>
							
								<rect x="348.106" y="357.726" style="clip-path:url(#SVGID_00000078015783657608122740000010232120974472136071_);fill:#79B4FF;" width="0.058" height="5.616"/>
							
								<rect x="348.164" y="357.726" style="clip-path:url(#SVGID_00000078015783657608122740000010232120974472136071_);fill:#78B4FF;" width="0.059" height="5.616"/>
							
								<rect x="348.223" y="357.726" style="clip-path:url(#SVGID_00000078015783657608122740000010232120974472136071_);fill:#77B3FF;" width="0.058" height="5.616"/>
							
								<rect x="348.28" y="357.726" style="clip-path:url(#SVGID_00000078015783657608122740000010232120974472136071_);fill:#76B2FF;" width="0.059" height="5.616"/>
							
								<rect x="348.339" y="357.726" style="clip-path:url(#SVGID_00000078015783657608122740000010232120974472136071_);fill:#74B1FF;" width="0.058" height="5.616"/>
							
								<rect x="348.396" y="357.726" style="clip-path:url(#SVGID_00000078015783657608122740000010232120974472136071_);fill:#73B0FF;" width="0.059" height="5.616"/>
							
								<rect x="348.455" y="357.726" style="clip-path:url(#SVGID_00000078015783657608122740000010232120974472136071_);fill:#72B0FF;" width="0.058" height="5.616"/>
							
								<rect x="348.513" y="357.726" style="clip-path:url(#SVGID_00000078015783657608122740000010232120974472136071_);fill:#71AFFF;" width="0.059" height="5.616"/>
							
								<rect x="348.571" y="357.726" style="clip-path:url(#SVGID_00000078015783657608122740000010232120974472136071_);fill:#70AEFF;" width="0.058" height="5.616"/>
							
								<rect x="348.629" y="357.726" style="clip-path:url(#SVGID_00000078015783657608122740000010232120974472136071_);fill:#6FADFF;" width="0.059" height="5.616"/>
							
								<rect x="348.688" y="357.726" style="clip-path:url(#SVGID_00000078015783657608122740000010232120974472136071_);fill:#6EADFF;" width="0.058" height="5.616"/>
							
								<rect x="348.745" y="357.726" style="clip-path:url(#SVGID_00000078015783657608122740000010232120974472136071_);fill:#6DACFF;" width="0.059" height="5.616"/>
							
								<rect x="348.804" y="357.726" style="clip-path:url(#SVGID_00000078015783657608122740000010232120974472136071_);fill:#6CABFF;" width="0.058" height="5.616"/>
							
								<rect x="348.861" y="357.726" style="clip-path:url(#SVGID_00000078015783657608122740000010232120974472136071_);fill:#6BAAFF;" width="0.059" height="5.616"/>
							
								<rect x="348.92" y="357.726" style="clip-path:url(#SVGID_00000078015783657608122740000010232120974472136071_);fill:#6AA9FF;" width="0.058" height="5.616"/>
							
								<rect x="348.977" y="357.726" style="clip-path:url(#SVGID_00000078015783657608122740000010232120974472136071_);fill:#69A9FF;" width="0.059" height="5.616"/>
							
								<rect x="349.036" y="357.726" style="clip-path:url(#SVGID_00000078015783657608122740000010232120974472136071_);fill:#68A8FF;" width="0.058" height="5.616"/>
							
								<rect x="349.094" y="357.726" style="clip-path:url(#SVGID_00000078015783657608122740000010232120974472136071_);fill:#67A7FF;" width="0.059" height="5.616"/>
							
								<rect x="349.152" y="357.726" style="clip-path:url(#SVGID_00000078015783657608122740000010232120974472136071_);fill:#66A6FF;" width="0.058" height="5.616"/>
							
								<rect x="349.21" y="357.726" style="clip-path:url(#SVGID_00000078015783657608122740000010232120974472136071_);fill:#65A6FF;" width="0.059" height="5.616"/>
							
								<rect x="349.268" y="357.726" style="clip-path:url(#SVGID_00000078015783657608122740000010232120974472136071_);fill:#64A5FF;" width="0.058" height="5.616"/>
							
								<rect x="349.326" y="357.726" style="clip-path:url(#SVGID_00000078015783657608122740000010232120974472136071_);fill:#63A4FF;" width="0.059" height="5.616"/>
							
								<rect x="349.385" y="357.726" style="clip-path:url(#SVGID_00000078015783657608122740000010232120974472136071_);fill:#62A3FF;" width="0.058" height="5.616"/>
							
								<rect x="349.442" y="357.726" style="clip-path:url(#SVGID_00000078015783657608122740000010232120974472136071_);fill:#61A2FF;" width="0.059" height="5.616"/>
							
								<rect x="349.501" y="357.726" style="clip-path:url(#SVGID_00000078015783657608122740000010232120974472136071_);fill:#60A2FF;" width="0.058" height="5.616"/>
							
								<rect x="349.559" y="357.726" style="clip-path:url(#SVGID_00000078015783657608122740000010232120974472136071_);fill:#5FA1FF;" width="0.059" height="5.616"/>
							
								<rect x="349.617" y="357.726" style="clip-path:url(#SVGID_00000078015783657608122740000010232120974472136071_);fill:#5EA0FF;" width="0.058" height="5.616"/>
							
								<rect x="349.675" y="357.726" style="clip-path:url(#SVGID_00000078015783657608122740000010232120974472136071_);fill:#5D9FFF;" width="0.059" height="5.616"/>
							
								<rect x="349.733" y="357.726" style="clip-path:url(#SVGID_00000078015783657608122740000010232120974472136071_);fill:#5C9EFF;" width="0.058" height="5.616"/>
							
								<rect x="349.791" y="357.726" style="clip-path:url(#SVGID_00000078015783657608122740000010232120974472136071_);fill:#5B9EFF;" width="0.059" height="5.616"/>
							
								<rect x="349.85" y="357.726" style="clip-path:url(#SVGID_00000078015783657608122740000010232120974472136071_);fill:#5A9DFF;" width="0.058" height="5.616"/>
							
								<rect x="349.907" y="357.726" style="clip-path:url(#SVGID_00000078015783657608122740000010232120974472136071_);fill:#599CFF;" width="0.059" height="5.616"/>
							
								<rect x="349.966" y="357.726" style="clip-path:url(#SVGID_00000078015783657608122740000010232120974472136071_);fill:#589BFF;" width="0.058" height="5.616"/>
							
								<rect x="350.023" y="357.726" style="clip-path:url(#SVGID_00000078015783657608122740000010232120974472136071_);fill:#579BFF;" width="0.059" height="5.616"/>
							
								<rect x="350.082" y="357.726" style="clip-path:url(#SVGID_00000078015783657608122740000010232120974472136071_);fill:#569AFF;" width="0.058" height="5.616"/>
							
								<rect x="350.14" y="357.726" style="clip-path:url(#SVGID_00000078015783657608122740000010232120974472136071_);fill:#5599FF;" width="0.059" height="5.616"/>
							<path style="clip-path:url(#SVGID_00000078015783657608122740000010232120974472136071_);fill:#5599FF;" d="M350.198,363.342
								v-5.616V363.342z"/>
						</g>
					</g>
				</g>
			</g>
			<g>
				<g>
					<g>
						<path style="fill:#DB9C7C;" d="M349.067,359.043c0,0-1.515,0.831-1.41,1.092c0.103,0.26,0.299,0.293,0.299,0.293l-0.468,0.624
							c0,0-0.076,0.589,0.587,0.5c0,0-0.128,0.543,0.502,0.381c0,0,0.075,0.396,0.38,0.372c0.306-0.023,1.258-0.599,1.258-0.599
							s0.147-0.212-0.141-0.542c0,0,0.169-0.379-0.138-0.66c0,0,0.087-0.324-0.247-0.626c0,0,0.14-0.739-0.46-0.91
							C349.229,358.968,349.131,359.008,349.067,359.043z"/>
					</g>
				</g>
			</g>
			<g>
				<g>
					<g>
						<g>
							<defs>
								<polygon id="SVGID_00000071551870355990723450000003090675634880326280_" points="344.636,358.844 349.974,357.848 
									349.104,353.471 343.809,354.678 								"/>
							</defs>
							<clipPath id="SVGID_00000060717770759556733490000005430433179347403661_">
								<use xlink:href="#SVGID_00000071551870355990723450000003090675634880326280_"  style="overflow:visible;"/>
							</clipPath>
							<path style="clip-path:url(#SVGID_00000060717770759556733490000005430433179347403661_);fill:#96CBFF;" d="M343.809,353.471
								v5.373V353.471z"/>
							
								<rect x="343.809" y="353.471" style="clip-path:url(#SVGID_00000060717770759556733490000005430433179347403661_);fill:#96CBFF;" width="0.095" height="5.373"/>
							
								<rect x="343.903" y="353.471" style="clip-path:url(#SVGID_00000060717770759556733490000005430433179347403661_);fill:#95CAFF;" width="0.095" height="5.373"/>
							
								<rect x="343.998" y="353.471" style="clip-path:url(#SVGID_00000060717770759556733490000005430433179347403661_);fill:#94C9FF;" width="0.096" height="5.373"/>
							
								<rect x="344.094" y="353.471" style="clip-path:url(#SVGID_00000060717770759556733490000005430433179347403661_);fill:#93C9FF;" width="0.095" height="5.373"/>
							
								<rect x="344.188" y="353.471" style="clip-path:url(#SVGID_00000060717770759556733490000005430433179347403661_);fill:#92C8FF;" width="0.095" height="5.373"/>
							
								<rect x="344.283" y="353.471" style="clip-path:url(#SVGID_00000060717770759556733490000005430433179347403661_);fill:#91C7FF;" width="0.095" height="5.373"/>
							
								<rect x="344.378" y="353.471" style="clip-path:url(#SVGID_00000060717770759556733490000005430433179347403661_);fill:#90C6FF;" width="0.095" height="5.373"/>
							
								<rect x="344.473" y="353.471" style="clip-path:url(#SVGID_00000060717770759556733490000005430433179347403661_);fill:#8FC6FF;" width="0.095" height="5.373"/>
							
								<rect x="344.567" y="353.471" style="clip-path:url(#SVGID_00000060717770759556733490000005430433179347403661_);fill:#8EC5FF;" width="0.095" height="5.373"/>
							
								<rect x="344.662" y="353.471" style="clip-path:url(#SVGID_00000060717770759556733490000005430433179347403661_);fill:#8DC4FF;" width="0.095" height="5.373"/>
							
								<rect x="344.757" y="353.471" style="clip-path:url(#SVGID_00000060717770759556733490000005430433179347403661_);fill:#8CC3FF;" width="0.096" height="5.373"/>
							
								<rect x="344.852" y="353.471" style="clip-path:url(#SVGID_00000060717770759556733490000005430433179347403661_);fill:#8BC2FF;" width="0.095" height="5.373"/>
							
								<rect x="344.947" y="353.471" style="clip-path:url(#SVGID_00000060717770759556733490000005430433179347403661_);fill:#8AC2FF;" width="0.095" height="5.373"/>
							
								<rect x="345.042" y="353.471" style="clip-path:url(#SVGID_00000060717770759556733490000005430433179347403661_);fill:#89C1FF;" width="0.095" height="5.373"/>
							
								<rect x="345.137" y="353.471" style="clip-path:url(#SVGID_00000060717770759556733490000005430433179347403661_);fill:#88C0FF;" width="0.095" height="5.373"/>
							
								<rect x="345.231" y="353.471" style="clip-path:url(#SVGID_00000060717770759556733490000005430433179347403661_);fill:#87BFFF;" width="0.095" height="5.373"/>
							
								<rect x="345.326" y="353.471" style="clip-path:url(#SVGID_00000060717770759556733490000005430433179347403661_);fill:#86BFFF;" width="0.095" height="5.373"/>
							
								<rect x="345.421" y="353.471" style="clip-path:url(#SVGID_00000060717770759556733490000005430433179347403661_);fill:#85BEFF;" width="0.095" height="5.373"/>
							
								<rect x="345.516" y="353.471" style="clip-path:url(#SVGID_00000060717770759556733490000005430433179347403661_);fill:#84BDFF;" width="0.096" height="5.373"/>
							
								<rect x="345.611" y="353.471" style="clip-path:url(#SVGID_00000060717770759556733490000005430433179347403661_);fill:#83BCFF;" width="0.095" height="5.373"/>
							
								<rect x="345.706" y="353.471" style="clip-path:url(#SVGID_00000060717770759556733490000005430433179347403661_);fill:#82BBFF;" width="0.095" height="5.373"/>
							
								<rect x="345.801" y="353.471" style="clip-path:url(#SVGID_00000060717770759556733490000005430433179347403661_);fill:#81BBFF;" width="0.095" height="5.373"/>
							
								<rect x="345.895" y="353.471" style="clip-path:url(#SVGID_00000060717770759556733490000005430433179347403661_);fill:#80BAFF;" width="0.095" height="5.373"/>
							
								<rect x="345.99" y="353.471" style="clip-path:url(#SVGID_00000060717770759556733490000005430433179347403661_);fill:#7FB9FF;" width="0.095" height="5.373"/>
							
								<rect x="346.085" y="353.471" style="clip-path:url(#SVGID_00000060717770759556733490000005430433179347403661_);fill:#7EB8FF;" width="0.095" height="5.373"/>
							
								<rect x="346.18" y="353.471" style="clip-path:url(#SVGID_00000060717770759556733490000005430433179347403661_);fill:#7DB7FF;" width="0.095" height="5.373"/>
							
								<rect x="346.274" y="353.471" style="clip-path:url(#SVGID_00000060717770759556733490000005430433179347403661_);fill:#7CB7FF;" width="0.095" height="5.373"/>
							
								<rect x="346.369" y="353.471" style="clip-path:url(#SVGID_00000060717770759556733490000005430433179347403661_);fill:#7BB6FF;" width="0.095" height="5.373"/>
							
								<rect x="346.464" y="353.471" style="clip-path:url(#SVGID_00000060717770759556733490000005430433179347403661_);fill:#7AB5FF;" width="0.095" height="5.373"/>
							
								<rect x="346.559" y="353.471" style="clip-path:url(#SVGID_00000060717770759556733490000005430433179347403661_);fill:#79B4FF;" width="0.096" height="5.373"/>
							
								<rect x="346.654" y="353.471" style="clip-path:url(#SVGID_00000060717770759556733490000005430433179347403661_);fill:#78B4FF;" width="0.095" height="5.373"/>
							
								<rect x="346.749" y="353.471" style="clip-path:url(#SVGID_00000060717770759556733490000005430433179347403661_);fill:#77B3FF;" width="0.095" height="5.373"/>
							
								<rect x="346.844" y="353.471" style="clip-path:url(#SVGID_00000060717770759556733490000005430433179347403661_);fill:#76B2FF;" width="0.095" height="5.373"/>
							
								<rect x="346.938" y="353.471" style="clip-path:url(#SVGID_00000060717770759556733490000005430433179347403661_);fill:#74B1FF;" width="0.095" height="5.373"/>
							
								<rect x="347.033" y="353.471" style="clip-path:url(#SVGID_00000060717770759556733490000005430433179347403661_);fill:#73B0FF;" width="0.095" height="5.373"/>
							
								<rect x="347.128" y="353.471" style="clip-path:url(#SVGID_00000060717770759556733490000005430433179347403661_);fill:#72B0FF;" width="0.095" height="5.373"/>
							
								<rect x="347.223" y="353.471" style="clip-path:url(#SVGID_00000060717770759556733490000005430433179347403661_);fill:#71AFFF;" width="0.095" height="5.373"/>
							
								<rect x="347.317" y="353.471" style="clip-path:url(#SVGID_00000060717770759556733490000005430433179347403661_);fill:#70AEFF;" width="0.096" height="5.373"/>
							
								<rect x="347.413" y="353.471" style="clip-path:url(#SVGID_00000060717770759556733490000005430433179347403661_);fill:#6FADFF;" width="0.095" height="5.373"/>
							
								<rect x="347.508" y="353.471" style="clip-path:url(#SVGID_00000060717770759556733490000005430433179347403661_);fill:#6EADFF;" width="0.095" height="5.373"/>
							
								<rect x="347.602" y="353.471" style="clip-path:url(#SVGID_00000060717770759556733490000005430433179347403661_);fill:#6DACFF;" width="0.095" height="5.373"/>
							
								<rect x="347.697" y="353.471" style="clip-path:url(#SVGID_00000060717770759556733490000005430433179347403661_);fill:#6CABFF;" width="0.095" height="5.373"/>
							
								<rect x="347.792" y="353.471" style="clip-path:url(#SVGID_00000060717770759556733490000005430433179347403661_);fill:#6BAAFF;" width="0.095" height="5.373"/>
							
								<rect x="347.887" y="353.471" style="clip-path:url(#SVGID_00000060717770759556733490000005430433179347403661_);fill:#6AA9FF;" width="0.095" height="5.373"/>
							
								<rect x="347.981" y="353.471" style="clip-path:url(#SVGID_00000060717770759556733490000005430433179347403661_);fill:#69A9FF;" width="0.095" height="5.373"/>
							
								<rect x="348.076" y="353.471" style="clip-path:url(#SVGID_00000060717770759556733490000005430433179347403661_);fill:#68A8FF;" width="0.095" height="5.373"/>
							
								<rect x="348.171" y="353.471" style="clip-path:url(#SVGID_00000060717770759556733490000005430433179347403661_);fill:#67A7FF;" width="0.096" height="5.373"/>
							
								<rect x="348.267" y="353.471" style="clip-path:url(#SVGID_00000060717770759556733490000005430433179347403661_);fill:#66A6FF;" width="0.095" height="5.373"/>
							
								<rect x="348.361" y="353.471" style="clip-path:url(#SVGID_00000060717770759556733490000005430433179347403661_);fill:#65A6FF;" width="0.095" height="5.373"/>
							
								<rect x="348.456" y="353.471" style="clip-path:url(#SVGID_00000060717770759556733490000005430433179347403661_);fill:#64A5FF;" width="0.095" height="5.373"/>
							
								<rect x="348.551" y="353.471" style="clip-path:url(#SVGID_00000060717770759556733490000005430433179347403661_);fill:#63A4FF;" width="0.095" height="5.373"/>
							
								<rect x="348.645" y="353.471" style="clip-path:url(#SVGID_00000060717770759556733490000005430433179347403661_);fill:#62A3FF;" width="0.095" height="5.373"/>
							
								<rect x="348.74" y="353.471" style="clip-path:url(#SVGID_00000060717770759556733490000005430433179347403661_);fill:#61A2FF;" width="0.095" height="5.373"/>
							
								<rect x="348.835" y="353.471" style="clip-path:url(#SVGID_00000060717770759556733490000005430433179347403661_);fill:#60A2FF;" width="0.095" height="5.373"/>
							
								<rect x="348.93" y="353.471" style="clip-path:url(#SVGID_00000060717770759556733490000005430433179347403661_);fill:#5FA1FF;" width="0.096" height="5.373"/>
							
								<rect x="349.025" y="353.471" style="clip-path:url(#SVGID_00000060717770759556733490000005430433179347403661_);fill:#5EA0FF;" width="0.095" height="5.373"/>
							
								<rect x="349.12" y="353.471" style="clip-path:url(#SVGID_00000060717770759556733490000005430433179347403661_);fill:#5D9FFF;" width="0.095" height="5.373"/>
							
								<rect x="349.215" y="353.471" style="clip-path:url(#SVGID_00000060717770759556733490000005430433179347403661_);fill:#5C9EFF;" width="0.095" height="5.373"/>
							
								<rect x="349.309" y="353.471" style="clip-path:url(#SVGID_00000060717770759556733490000005430433179347403661_);fill:#5B9EFF;" width="0.095" height="5.373"/>
							
								<rect x="349.404" y="353.471" style="clip-path:url(#SVGID_00000060717770759556733490000005430433179347403661_);fill:#5A9DFF;" width="0.095" height="5.373"/>
							
								<rect x="349.499" y="353.471" style="clip-path:url(#SVGID_00000060717770759556733490000005430433179347403661_);fill:#599CFF;" width="0.095" height="5.373"/>
							
								<rect x="349.594" y="353.471" style="clip-path:url(#SVGID_00000060717770759556733490000005430433179347403661_);fill:#589BFF;" width="0.095" height="5.373"/>
							
								<rect x="349.688" y="353.471" style="clip-path:url(#SVGID_00000060717770759556733490000005430433179347403661_);fill:#579BFF;" width="0.095" height="5.373"/>
							
								<rect x="349.783" y="353.471" style="clip-path:url(#SVGID_00000060717770759556733490000005430433179347403661_);fill:#569AFF;" width="0.096" height="5.373"/>
							
								<rect x="349.879" y="353.471" style="clip-path:url(#SVGID_00000060717770759556733490000005430433179347403661_);fill:#5599FF;" width="0.095" height="5.373"/>
							<path style="clip-path:url(#SVGID_00000060717770759556733490000005430433179347403661_);fill:#5599FF;" d="M349.974,358.844
								v-5.373V358.844z"/>
						</g>
					</g>
				</g>
			</g>
			<g>
				<g>
					<g>
						<path style="fill:#EEA886;" d="M346.419,360.167c0,0,1.185-0.033,1.84,0.231c0.147,0.061,0.28,0.145,0.28,0.307
							c0,0.159-0.232,0.363-0.744,0.404c-0.513,0.041-1.156,0.327-1.156,0.327S346.1,361.324,346.419,360.167z"/>
					</g>
				</g>
			</g>
			<g>
				<g>
					<g>
						<path style="fill:#293B57;" d="M334.742,402.374c-0.091,0.473-0.183,0.954-0.276,1.432l-3.031-8.022
							C331.835,396.593,334.742,402.374,334.742,402.374z"/>
					</g>
				</g>
			</g>
		</g>
		<g>
			<path style="fill:#FFC955;" d="M167.951,306.788h-47.824c-3.533,0-6.397-2.863-6.397-6.396v-75.548
				c0-3.533,2.864-6.398,6.397-6.398h47.824c3.533,0,6.398,2.865,6.398,6.398v75.548
				C174.349,303.925,171.484,306.788,167.951,306.788z"/>
		</g>
		<g>
			<g>
				<g>
					<g>
						<g>
							<rect x="164.768" y="275.498" style="fill:#E3F2FF;" width="3.142" height="23.903"/>
						</g>
					</g>
				</g>
			</g>
			<g>
				<g>
					<g>
						<g>
							<rect x="158.563" y="278.177" style="fill:#E3F2FF;" width="3.141" height="21.225"/>
						</g>
					</g>
				</g>
			</g>
			<g>
				<g>
					<g>
						<g>
							<rect x="151.82" y="281.661" style="fill:#E3F2FF;" width="3.141" height="17.74"/>
						</g>
					</g>
				</g>
			</g>
			<g>
				<g>
					<g>
						<g>
							<rect x="144.896" y="286.055" style="fill:#E3F2FF;" width="3.141" height="13.347"/>
						</g>
					</g>
				</g>
			</g>
			<g>
				<g>
					<g>
						<polygon style="fill:#E3F2FF;" points="126.155,283.223 125.475,282.98 131.397,266.364 144.241,262.968 148.857,244.73 
							158.77,240.356 160.989,226.175 161.703,226.287 159.422,240.857 149.472,245.249 144.838,263.557 131.95,266.967 						"/>
					</g>
				</g>
			</g>
			<g>
				<g>
					<path style="fill:#FFC955;" d="M146.032,262.042c0.674,0.824,0.552,2.038-0.273,2.713c-0.824,0.673-2.039,0.551-2.713-0.273
						c-0.674-0.823-0.551-2.038,0.273-2.712C144.143,261.097,145.358,261.218,146.032,262.042z"/>
				</g>
			</g>
			<g>
				<g>
					<path style="fill:#E3F2FF;" d="M145.988,265.034c-0.978,0.799-2.422,0.654-3.221-0.324c-0.799-0.977-0.653-2.422,0.323-3.221
						c0.978-0.798,2.422-0.653,3.221,0.324C147.11,262.79,146.966,264.235,145.988,265.034z M143.549,262.05
						c-0.669,0.547-0.769,1.534-0.222,2.203c0.547,0.669,1.535,0.769,2.203,0.222c0.669-0.547,0.769-1.535,0.222-2.203
						C145.206,261.603,144.217,261.503,143.549,262.05z"/>
				</g>
			</g>
			<g>
				<g>
					<path style="fill:#FFC955;" d="M150.709,243.88c0.674,0.824,0.552,2.039-0.273,2.712c-0.824,0.674-2.039,0.552-2.712-0.273
						c-0.674-0.824-0.552-2.039,0.272-2.712C148.821,242.934,150.035,243.056,150.709,243.88z"/>
				</g>
			</g>
			<g>
				<g>
					<path style="fill:#E3F2FF;" d="M150.665,246.872c-0.977,0.798-2.422,0.653-3.221-0.324c-0.799-0.978-0.653-2.422,0.323-3.221
						c0.977-0.798,2.422-0.653,3.221,0.324C151.787,244.629,151.643,246.074,150.665,246.872z M148.226,243.888
						c-0.669,0.546-0.769,1.535-0.222,2.204c0.547,0.668,1.535,0.768,2.204,0.221c0.668-0.546,0.768-1.535,0.221-2.204
						C149.883,243.44,148.893,243.341,148.226,243.888z"/>
				</g>
			</g>
			<g>
				<g>
					<path style="fill:#FFC955;" d="M160.468,239.381c0.674,0.824,0.552,2.039-0.272,2.712c-0.824,0.674-2.038,0.552-2.712-0.272
						c-0.674-0.824-0.552-2.039,0.272-2.712C158.58,238.434,159.794,238.557,160.468,239.381z"/>
				</g>
			</g>
			<g>
				<g>
					<path style="fill:#E3F2FF;" d="M160.424,242.373c-0.977,0.799-2.422,0.653-3.221-0.324c-0.798-0.977-0.653-2.422,0.324-3.221
						c0.978-0.799,2.422-0.653,3.221,0.324C161.547,240.129,161.401,241.574,160.424,242.373z M157.984,239.388
						c-0.668,0.546-0.768,1.535-0.221,2.204c0.546,0.669,1.534,0.768,2.203,0.222c0.669-0.546,0.768-1.535,0.222-2.204
						C159.642,238.941,158.653,238.842,157.984,239.388z"/>
				</g>
			</g>
			<g>
				<g>
					<path style="fill:#FFC955;" d="M133.238,265.609c0.674,0.824,0.552,2.038-0.273,2.712c-0.825,0.674-2.039,0.552-2.713-0.272
						s-0.552-2.039,0.272-2.712C131.35,264.663,132.564,264.785,133.238,265.609z"/>
				</g>
			</g>
			<g>
				<g>
					<path style="fill:#E3F2FF;" d="M133.194,268.602c-0.977,0.799-2.422,0.653-3.221-0.324c-0.799-0.977-0.653-2.422,0.323-3.221
						c0.978-0.798,2.422-0.653,3.221,0.323C134.316,266.358,134.171,267.803,133.194,268.602z M130.755,265.617
						c-0.669,0.546-0.769,1.534-0.222,2.203c0.546,0.668,1.535,0.768,2.203,0.222c0.669-0.547,0.769-1.535,0.222-2.204
						C132.412,265.169,131.423,265.07,130.755,265.617z"/>
				</g>
			</g>
			<g>
				<g>
					<g>
						<g>
							<path style="fill:#EBEBEB;" d="M138.083,247.52h-16.53c-0.764,0-1.383-0.62-1.383-1.383v-1.231
								c0-0.764,0.619-1.383,1.383-1.383h16.53c0.764,0,1.384,0.619,1.384,1.383v1.231C139.467,246.9,138.847,247.52,138.083,247.52
								z"/>
						</g>
					</g>
				</g>
			</g>
			<g>
				<g>
					<g>
						<g>
							<path style="fill:#EBEBEB;" d="M138.083,240.531h-16.53c-0.764,0-1.383-0.619-1.383-1.383v-1.23
								c0-0.764,0.619-1.384,1.383-1.384h16.53c0.764,0,1.384,0.62,1.384,1.384v1.23
								C139.467,239.912,138.847,240.531,138.083,240.531z"/>
						</g>
					</g>
				</g>
			</g>
		</g>
		<g>
			<g>
				<path style="fill:#16202E;" d="M106.319,250.736c0,0-0.56,5.518,0.46,6.902c0,0-2.699-0.588-3.324-1.517
					S106.319,250.736,106.319,250.736z"/>
			</g>
			<g>
				<g>
					<path style="fill:#EEA886;" d="M123.173,268.357c0,0,0.979-0.658,1.132-0.754c0.152-0.096,0.655-0.08,1.231-0.012
						c0.576,0.068,1.323,0.419,1.368,0.509c0.045,0.089,0.133,0.158,0.097,0.412c-0.037,0.254-0.207,0.449-0.207,0.449
						s0.103,0.334-0.125,0.558c0,0,0.082,0.319-0.219,0.532c0,0,0.072,0.314-0.159,0.449c0,0-0.504-0.016-0.692,0.033
						c-0.189,0.048-1.234-0.055-2.223-0.309C123.376,270.226,122.273,269.989,123.173,268.357z"/>
				</g>
			</g>
			<g>
				<g>
					<path style="fill:#CF8C6C;" d="M124.84,268.814c0,0-0.295,0.515-0.451,0.617c-0.155,0.103,0.754,1.081,0.754,1.081
						S125.455,269.189,124.84,268.814z"/>
				</g>
			</g>
			<g>
				<g>
					<path style="fill:#EEA886;" d="M122.593,268.452c0,0,0.616-0.068,0.997-0.244c0.38-0.176-0.071,1.918-0.071,1.918
						s-0.923-0.637-1.524-0.654C121.392,269.452,122.593,268.452,122.593,268.452z"/>
				</g>
			</g>
			<g>
				<g>
					<path style="fill:#162D40;" d="M97.067,324.219c0,0,1.926,2.815,2.598,3.413c0,0,1.344,0.697,1.385,1.254
						c0.079,1.054,0.135,1.674-1.633,1.724c-1.768,0.05-2.872-0.005-3.196-1.075c-0.323-1.071-0.882-1.911-0.882-1.911l-0.135,2.786
						h-0.398c0,0-0.178-2.792-0.203-3.191c-0.024-0.397-0.286-1.929,0.555-2.607C95.997,323.933,97.067,324.219,97.067,324.219z"/>
				</g>
			</g>
			<g>
				<g>
					<path style="fill:#162D40;" d="M99.921,327.776c0,0-0.955,0.27-2.092-0.017c-1.137-0.286-2.228-3.007-2.56-3.233l-0.295-1.099
						h2.216c0,0,0.019,0.813,0.376,1.508C97.925,325.631,99.921,327.776,99.921,327.776z"/>
				</g>
			</g>
			<g>
				<g>
					<path style="fill:#162D40;" d="M109.568,323.167c0,0,0.289,0.683,0.834,1.393c0.4,0.522,1.644,2.664,2.191,2.814
						c0.547,0.149,2.24,0.448,2.39,1.394c0.149,0.946,0.224,1.618-1.444,1.693c-1.668,0.074-2.763,0.174-3.559-0.996
						c-0.797-1.17-2.066-2.017-2.066-2.017v3.053h-0.647c0,0-0.298-3.177-0.473-3.4c-0.174-0.225-0.622-2.664,0.921-3.934
						C109.258,321.897,109.568,323.167,109.568,323.167z"/>
				</g>
			</g>
			<g>
				<g>
					<path style="fill:#162D40;" d="M112.594,327.374c0,0-1.494,0.373-2.066,0c-0.572-0.373-2.52-3.663-3.164-3.86
						c0,0,0.625-1.267,2.205-0.347C109.568,323.167,112.17,326.826,112.594,327.374z"/>
				</g>
			</g>
			<g>
				<g>
					<path style="fill:#1D3B54;" d="M96.22,277.45c0,0-2.106,2.738-2.678,5.987c-0.571,3.248,0.338,14.151,0.313,15.758
						c-0.024,1.605-1.416,6.602-1.118,9.626c0.299,3.024,1.863,15.649,1.863,15.649l3.649-0.066c0,0-0.731-13.622-0.545-14.892
						c0.187-1.27,0.781-6.671,0.855-7.194c0.075-0.522,4.157-14.347,4.157-16.688S101.298,273.63,96.22,277.45z"/>
				</g>
			</g>
			<g>
				<g>
					<path style="fill:#1D3B54;" d="M106.8,278.521c0,0,3.46,13.205,3.87,15.035c0.411,1.829,1.232,4.22,1.195,4.556
						c-0.037,0.335-0.436,5.974-0.436,5.974l-0.983,19.193H106.8c0,0-1.17-12.211-1.357-14.675
						c-0.187-2.465,1.345-6.273,0.971-7.319c-0.373-1.045-6.012-13.105-6.012-13.105S96.133,274.688,106.8,278.521z"/>
				</g>
			</g>
			<g>
				<g>
					<path style="fill:#EDDAD3;" d="M105.729,258.755c0,0,1.384,0.13,2.43,1.25c1.046,1.12,2.026,2.907,2.301,3.504
						c0.273,0.598,4.112,6.135,4.312,6.259c0.199,0.124,1.876-0.316,3.221-0.429c2.193-0.183,5.475-1.3,5.475-1.3l0.487,2.478
						c0,0-8.07,2.604-9.933,2.146c-2.277-0.561-7.52-7.287-7.52-7.287S102.593,260.797,105.729,258.755z"/>
				</g>
			</g>
			<g>
				<g>
					<path style="fill:#EDDAD3;" d="M103.314,257.785c0,0,1.792,0.846,2.414,0.971c0.623,0.125,3.037,3.261,3.461,4.407
						c0.423,1.145,0,2.862-0.871,4.878c-0.872,2.017-0.05,2.689-0.448,4.706c-0.398,2.016-0.398,7.513-0.323,8.633
						c0.074,1.12-11.524,3.233-13.839,1.192c0,0,1.566-5.167,3.423-7.107c0.4-0.42,0.358-3.217,0.085-3.913
						c-0.274-0.697-3.361-5.899-3.361-5.899s-0.227-5.277,1.12-6.323c1.17-0.909,4.359-1.233,4.932-1.432
						C100.479,257.697,102.145,257.61,103.314,257.785z"/>
				</g>
			</g>
			<g>
				<g>
					<path style="fill:#D1C0BA;" d="M103.887,261.78l1.089-1.275l-0.945-3.358C104.03,257.147,103.713,259.017,103.887,261.78z"/>
				</g>
			</g>
			<g>
				<g>
					<path style="fill:#EEA886;" d="M97.059,258.755c0,0-2.259-0.647-3.554,1.842c-1.294,2.489-0.971,3.833-1.27,4.953
						c-0.298,1.121-1.493,8.613-1.567,8.938c-0.075,0.323-1.22,4.133-1.071,5.302c0.149,1.17,1.221,10.032,1.171,10.331
						c-0.05,0.299,2.065-0.286,2.065-0.286s-0.087-9.049-0.012-9.796c0.074-0.746,0.148-4.667,0.709-5.676
						c0.561-1.008,1.941-7.169,2.24-7.804C96.07,265.925,98.964,259.564,97.059,258.755z"/>
				</g>
			</g>
			<g>
				<g>
					<path style="fill:#EEA886;" d="M104.17,255.716c0,0-0.357,3.288-0.283,4.359c0,0-1.862,1.866-3.98-2.179
						c0,0,0.892-1.667,0.221-3.939C99.456,251.686,104.17,255.716,104.17,255.716z"/>
				</g>
			</g>
			<g>
				<g>
					<polygon style="fill:#EEA886;" points="103.887,260.075 103.887,261.78 101.885,260.006 					"/>
				</g>
			</g>
			<g>
				<g>
					<polygon style="fill:#D1C0BA;" points="103.887,261.78 102.997,260.679 99.999,257.691 98.876,258.19 					"/>
				</g>
			</g>
			<g>
				<g>
					<polygon style="fill:#FAE6DE;" points="104.976,260.505 106.349,260.884 104.03,257.147 					"/>
				</g>
			</g>
			<g>
				<g>
					<polygon style="fill:#FAE6DE;" points="102.997,260.679 101.743,262.688 98.83,258.118 100.078,257.483 					"/>
				</g>
			</g>
			<g>
				<path style="fill:#D1C0BA;" d="M109.383,268.784c0,0,0.448-2.982-0.028-4.795c0,0-0.264,1.463-0.905,3.741L109.383,268.784z"/>
			</g>
			<g>
				<path style="fill:#D1C0BA;" d="M95.461,268.388c0,0,1.239-4.1,1.313-4.324c0,0-0.085,3.767-0.56,5.633
					C96.214,269.696,95.758,268.9,95.461,268.388z"/>
			</g>
			<g>
				<polygon style="fill:#54281A;" points="141.622,247.841 122.119,272.413 122.799,272.938 				"/>
			</g>
			<g>
				<g>
					<path style="fill:#DB9C7C;" d="M126.754,268.076c0,0-1.463-0.138-1.515,0.096c-0.052,0.232,0.071,0.35,0.071,0.35l-0.629,0.217
						c0,0-0.335,0.378,0.175,0.633c0,0-0.349,0.32,0.173,0.508c0,0-0.137,0.313,0.09,0.443c0.227,0.129,1.172,0.179,1.172,0.179
						s0.204-0.079,0.159-0.449c0,0,0.301-0.186,0.219-0.532c0,0,0.217-0.186,0.125-0.558c0,0,0.451-0.455,0.11-0.861
						C126.904,268.101,126.816,268.081,126.754,268.076z"/>
				</g>
			</g>
			<g>
				<g>
					<path style="fill:#EEA886;" d="M124.351,267.603c0,0,0.851,0.543,1.186,1.042c0.075,0.114,0.128,0.237,0.052,0.35
						c-0.077,0.113-0.338,0.145-0.718-0.069c-0.381-0.217-0.972-0.322-0.972-0.322S123.573,268.267,124.351,267.603z"/>
				</g>
			</g>
			<g>
				<path style="fill:#EEA886;" d="M102.659,244.525c0,0,3.3-0.085,3.906,3.821c0.607,3.907-0.796,7.339-1.346,7.889
					c-0.551,0.55-3.85,0.133-4.627-1.896c-0.778-2.029-1.916-3.508-1.745-5.253C99.019,247.341,98.601,244.459,102.659,244.525z"/>
			</g>
			<g>
				<path style="fill:#16202E;" d="M106.706,249.825c0,0,0.884-4.873-3.497-5.745c-4.38-0.872-5.916,2.124-6.333,3.906
					c-0.418,1.783,0.076,6.808,0.076,6.808s2.92,2.56,4.664,3.224c0,0-1.46-5.348-0.91-9.178c0,0,3.56,0.559,5.923-0.024
					C106.629,248.815,106.7,249.615,106.706,249.825z"/>
			</g>
			<g>
				<path style="fill:#A77860;" d="M104.095,256.45c0,0-1.146-0.008-2.704-1.021c0,0,1.097,1.377,2.625,1.881
					C104.016,257.31,104.106,256.625,104.095,256.45z"/>
			</g>
			<g>
				
					<rect x="85.523" y="282.588" transform="matrix(0.9869 -0.1612 0.1612 0.9869 -45.1081 18.5792)" style="fill:#366E9C;" width="12.912" height="9.55"/>
			</g>
			<g>
				<g>
					<g>
						<g>
							<g>
								<g>
									<path style="fill:#EEA886;" d="M90.328,292.951c0,0-0.2-0.325-0.218-0.51c0,0-0.008-0.339-0.027-0.579
										c-0.007-0.076-0.014-0.143-0.024-0.185c-0.038-0.177-0.175-0.554-0.148-1.004c0.027-0.45,0.642-2.362,0.642-2.362
										l1.128,0.039l1.062-0.114c0,0,1.282,2.447,1.306,2.869c0.002,0.041,0.003,0.083,0,0.121
										c-0.015,0.359-0.177,0.62-0.206,0.809c-0.011,0.069-0.168,0.746-0.354,0.84c-0.258,0.129-0.489,0.113-0.66,0.015
										c0,0-0.517,0.232-0.884,0.132c0,0-0.469,0.228-0.891-0.027C91.054,292.994,90.552,293.173,90.328,292.951z"/>
								</g>
							</g>
						</g>
					</g>
				</g>
			</g>
			<g>
				<g>
					<path style="fill:#EDDAD3;" d="M97.059,258.755c0,0-2.259-0.647-3.554,1.842c-1.294,2.489-1.287,3.552-1.461,4.767
						c-0.163,1.148-1.741,7.966-1.816,8.29c-0.074,0.323-0.594,4.585-0.631,6.136c-0.027,1.18,0.249,8.912,0.199,9.211
						c-0.05,0.299,3.575-0.523,3.575-0.523s-0.401-7.131-0.326-7.878c0.074-0.747,0.233-4.47,0.599-5.565
						c0.429-1.284,2.121-7.76,2.42-8.396C96.363,266.005,98.964,259.564,97.059,258.755z"/>
				</g>
			</g>
		</g>
		<g>
			<g>
				<g>
					<path style="fill:#5C544D;" d="M213.815,325.78l0.234-2.188c0,0-3.086-0.022-3.447,0.237c0,0,0.263,1.838,0.295,2.113
						C210.931,326.219,213.815,325.78,213.815,325.78z"/>
				</g>
			</g>
			<g>
				<g>
					<path style="fill:#3C4145;" d="M208.57,330.355c3.672-0.031,5.442,0.22,5.836-0.376c0.394-0.596-0.569-4.396-0.569-4.396
						s-0.87,0.316-2.97,0.125c0,0-0.914,1.108-1.798,1.591c-0.885,0.482-2.274,0.674-2.797,1.173
						C205.895,328.834,204.898,330.387,208.57,330.355z"/>
				</g>
			</g>
			<g>
				<g>
					<path style="fill:#5C544D;" d="M193.143,325.78l0.233-2.188c0,0-3.086-0.022-3.446,0.237c0,0,0.262,1.838,0.295,2.113
						C190.258,326.219,193.143,325.78,193.143,325.78z"/>
				</g>
			</g>
			<g>
				<g>
					<path style="fill:#3C4145;" d="M187.897,330.355c3.671-0.097,5.442,0.22,5.836-0.376c0.393-0.596-0.569-4.396-0.569-4.396
						s-0.819,0.338-2.969,0.125c0,0-0.915,1.108-1.799,1.591c-0.884,0.482-4.138,0.879-4.66,1.379
						C183.358,329.039,182.731,330.491,187.897,330.355z"/>
				</g>
			</g>
			<g>
				<g>
					<path style="fill:#DBD8E3;" d="M209.578,276.375c0,0,1.535,4.56,1.333,8.492c-0.202,3.93,0.794,8.231,1.201,12.338
						c0.454,4.577,2.313,15.414,2.38,17.862c0.067,2.449-0.289,10.268-0.289,10.268l-3.719,0.087c0,0-3.124-18.946-3.933-20.879
						c-0.809-1.934-4.821-15.716-4.956-17.262C201.461,285.734,209.578,276.375,209.578,276.375z"/>
				</g>
			</g>
			<g>
				<g>
					<path style="fill:#DBD8E3;" d="M193.942,277.186c0,0-2.043,10.773-2.313,13.179c-0.27,2.406-0.449,11.643-0.584,13.145
						c-0.135,1.504-0.899,19.677-1.618,21.911h4.755c0,0,3.649-13.212,3.649-19.462s2.82-13.588,4.641-17.712
						c1.82-4.124,5.986-4.222,7.105-11.873C209.578,276.375,195.458,274.76,193.942,277.186z"/>
				</g>
			</g>
			<g>
				<g>
					<path style="fill:#EEA886;" d="M203.605,240.368c0,0-3.748-1.4-5.475,1.453c-1.729,2.853-1.562,8.565,0.327,9.267
						c1.89,0.703,4.727,0.335,5.694-1.45c0.968-1.785,1.841-4.366,1.799-6.091C205.908,241.822,204.59,240.866,203.605,240.368z"/>
				</g>
			</g>
			<g>
				<g>
					<path style="fill:#EEA886;" d="M199.086,250.913c0,0,0.152,0.983-0.099,1.467c-0.25,0.484,4.715,0.497,4.715,0.497
						s0.402-2.632,1.167-4.856C205.633,245.795,199.086,250.913,199.086,250.913z"/>
				</g>
			</g>
			<g>
				<g>
					<path style="fill:#FCCCA2;" d="M204.869,248.02c0,0-0.343,0.565-1.741,0.346c-1.399-0.219-3.105-2.08-3.689-2.284
						c-0.584-0.205-0.589-0.547-0.589-0.547l-0.366,0.534l-0.62,0.039c0,0,0.565-1.664-0.288-2.344
						c-0.854-0.679,0.886-5.388,5.372-3.82c0,0,3.215,0.634,3.409,2.588C206.563,244.612,205.64,247.043,204.869,248.02z"/>
				</g>
			</g>
			<g>
				<g>
					<path style="fill:#E2D2CA;" d="M198.693,252.321c0,0,0.016-0.924,0.435-1.013c0.419-0.088,4.626-0.493,5.141-0.291v1.077
						C204.268,252.094,203.277,252.704,198.693,252.321z"/>
				</g>
			</g>
			<g>
				<g>
					<path style="fill:#EEA886;" d="M198.941,244.821c0.079-0.329,0.914-1.268,1.234-0.262c0.32,1.006-0.483,2.358-0.932,2.242
						C198.796,246.685,198.743,245.654,198.941,244.821z"/>
				</g>
			</g>
			<g>
				<g>
					<path style="fill:#63A4FF;" d="M198.693,252.321c0,0-2.307,0.829-4.979,1.965c0,0-3.073,1.147-3.405,4.541
						c-0.177,1.801-2.095,11.362-2.455,12.171c-0.359,0.809-4.612,13.805-4.763,14.074c-0.149,0.27,3.472,1.773,3.711,1.653
						c0.24-0.12,4.119-11.854,4.508-12.723c0,0,2.233-7.035,2.293-8.084c0,0,0.064,2.989,0.184,3.828
						c0.12,0.839-1.985,17.13-1.925,17.579c0.06,0.45,9.567,1.021,13.373,0.601c3.806-0.419,6.876-1.294,6.876-1.294
						s-2.994-12.856-2.902-14.282c0.2-3.106,1.238-8.955,1.238-8.955l3.103,5.849l-3.972,10.219l0.909,3.104
						c0,0,7.381-11.152,7.62-12.171c0.24-1.019-0.361-2.316-0.751-3.155c-0.39-0.839-2.948-7.224-3.548-8.123
						c-0.599-0.899-1.611-4.499-4.059-5.5c-2.047-0.838-5.482-1.524-5.482-1.524L198.693,252.321z"/>
				</g>
			</g>
			<g>
				<g>
					
						<rect x="177.505" y="276.407" transform="matrix(0.9687 0.2484 -0.2484 0.9687 76.0492 -37.4585)" style="fill:#F25F54;" width="17.949" height="12.522"/>
				</g>
			</g>
			<g>
				<g>
					<path style="fill:#C98462;" d="M181.578,287.725c0,0-0.497,0.803-0.679,1.032c-0.181,0.228,0.446,0.373,0.715,0.141
						C181.884,288.666,181.578,287.725,181.578,287.725z"/>
				</g>
			</g>
			<g>
				<g>
					<path style="fill:#DE9D7D;" d="M185.198,290.467c0,0,0.294-0.306,0.357-0.502c0,0,0.087-0.367,0.165-0.623
						c0.025-0.082,0.049-0.152,0.068-0.195c0.083-0.184,0.321-0.561,0.397-1.057c0.077-0.495,0.294-2.72,0.294-2.72l-1.348-0.34
						l-1.081-0.228c0,0-2.338,2.332-2.463,2.786c-0.012,0.044-0.022,0.088-0.028,0.131c-0.068,0.395,0.046,0.716,0.033,0.928
						c-0.004,0.077,0.008,0.851,0.188,0.995c0.25,0.201,0.505,0.239,0.715,0.172c0,0,0.506,0.372,0.929,0.35
						c0,0,0.457,0.358,0.975,0.181C184.399,290.344,184.903,290.656,185.198,290.467z"/>
				</g>
			</g>
			<g>
				<g>
					<path style="fill:#63A4FF;" d="M190.456,276.398c0,0-3.086,9.346-3.653,10.327c0,0-2.263-0.476-3.711-1.653l3.389-10.085
						L190.456,276.398z"/>
				</g>
			</g>
		</g>
		<g>
			<g>
				<path style="fill:#252E3B;" d="M468.838,290.971c0,0,11.455-33.593-10.404-44.007c-21.859-10.414-40.419,4.64-43.925,12.786
					c-3.506,8.146-2.578,22.959,0.412,33.288c2.99,10.328,2.555,26.052-3.941,31.31c-6.496,5.259-14.551,13.992-14.152,31.771
					c0.248,11.029,43.401-28.213,43.401-28.213L468.838,290.971z"/>
			</g>
			<g>
				<path style="fill:#FFD255;" d="M438.124,330.931c0,0-17.967,3.982-25.099,8.15c-7.131,4.167-22.968,23.338-22.968,31.581
					c0,8.243,69.258,15.943,69.258,15.943l13.127,47.925c0,0,35.006-8.542,39.173-15.627c4.168-7.085-13.295-57.86-16.284-68.137
					c-3.049-10.482-15.596-17.792-30.182-19.836C450.563,328.888,438.124,330.931,438.124,330.931z"/>
			</g>
			<g>
				<path style="fill:#EEA886;" d="M463.903,330.766c0,0-0.403,21.837-17.723,22.485c-17.318,0.647-13.713-20.945-13.713-20.945
					S445.135,327.174,463.903,330.766z"/>
			</g>
			<g>
				<path style="fill:#252E3B;" d="M471.23,264.87c0,0,6.126,35.122-11.32,60.493C441.842,351.639,471.23,264.87,471.23,264.87z"/>
			</g>
			<g>
				<path style="fill:#EEA886;" d="M460.186,315.326c0,0-1.204,10.445,0.807,16.942c2.011,6.496-26.48,6.676-26.465,1.334
					c0.019-6.067,2.915-11.137,0.186-21.537C431.986,301.663,460.186,315.326,460.186,315.326z"/>
			</g>
			<g>
				<path style="fill:#A77860;" d="M438.086,316.658c0,0,8.996,9.372,20.499,0.977c0,0-0.95,5.99-9.224,6.764
					C441.088,325.173,438.086,316.658,438.086,316.658z"/>
			</g>
			<g>
				<path style="fill:#EEA886;" d="M449.352,252.692c0,0,22.734,6.727,19.486,38.278c-3.248,31.55-18.095,29.926-19.486,30.158
					c-1.393,0.231-19.023,1.392-24.591-36.886C419.193,245.965,449.352,252.692,449.352,252.692z"/>
			</g>
			<g>
				<path style="fill:#252E3B;" d="M443.482,266.761c0,0,12.353,19.651,25.355,24.21c0,0,7.1-32.974-22.223-39.883
					c-29.322-6.908-24.73,33.305-22.541,44.028C424.074,295.116,430.182,279.34,443.482,266.761z"/>
			</g>
			<g>
				<path style="fill:#88C0FF;" d="M426.913,263.801c0,0,6.503-12.593,17.483-13.156c10.98-0.562,17.511,8.963,17.511,8.963
					s-4.287-10.726-17.497-10.726C431.2,248.883,426.913,263.801,426.913,263.801z"/>
			</g>
		</g>
		<g>
			<polygon style="fill:#5FA0FF;" points="471.616,362.846 479.326,434.524 377.851,434.524 370.141,362.846 			"/>
		</g>
		<g>
			<path style="fill:#5FA0FF;" d="M476.884,432.064H374.518l-7.805-72.563h102.365L476.884,432.064z M375.313,431.181h100.585
				l-7.614-70.795H367.698L375.313,431.181z"/>
		</g>
		<g>
			<path style="fill:#5189DB;" d="M431.029,397.526c0.911,4.459-1.169,8.65-4.647,9.361c-3.477,0.71-7.034-2.328-7.945-6.787
				c-0.911-4.46,1.169-8.65,4.645-9.361C426.56,390.029,430.117,393.067,431.029,397.526z"/>
		</g>
		<g>
			
				<rect x="469.733" y="427.319" transform="matrix(-1 -1.224647e-16 1.224647e-16 -1 958.4023 861.8437)" style="fill:#5FA0FF;" width="18.935" height="7.205"/>
		</g>
		<g>
			<path style="fill:#64A4FF;" d="M410.856,219.308c-8.608,0-15.611-7.003-15.611-15.612c0-8.608,7.003-15.611,15.611-15.611
				s15.611,7.003,15.611,15.611C426.468,212.305,419.465,219.308,410.856,219.308z M410.856,188.97
				c-8.12,0-14.727,6.606-14.727,14.727c0,8.121,6.606,14.727,14.727,14.727c8.12,0,14.727-6.606,14.727-14.727
				C425.583,195.576,418.977,188.97,410.856,188.97z"/>
		</g>
		<g>
			<path style="fill:#C2BEBC;" d="M135.544,378.024l-0.011-1.327c2.646-0.022,5.314-0.096,7.929-0.219l0.063,1.326
				C140.893,377.928,138.208,378.002,135.544,378.024z M127.558,377.943c-2.622-0.074-5.307-0.196-7.977-0.366l0.083-1.324
				c2.655,0.168,5.324,0.29,7.932,0.364L127.558,377.943z M151.491,377.271l-0.115-1.321c2.619-0.229,5.272-0.513,7.887-0.846
				l0.168,1.316C156.799,376.756,154.127,377.043,151.491,377.271z M111.619,376.941c-2.722-0.27-5.391-0.615-7.93-1.029
				l0.213-1.311c2.513,0.409,5.153,0.753,7.848,1.02L111.619,376.941z M167.33,375.255l-0.22-1.31
				c2.558-0.429,5.182-0.919,7.8-1.459l0.268,1.301C172.543,374.329,169.903,374.822,167.33,375.255z M95.841,374.334
				c-2.675-0.648-5.264-1.4-7.696-2.237l0.432-1.254c2.393,0.821,4.942,1.563,7.577,2.2L95.841,374.334z M182.967,372.047
				l-0.31-1.291c2.436-0.584,4.954-1.223,7.699-1.954l0.342,1.283C187.942,370.818,185.413,371.46,182.967,372.047z M80.709,369.073
				c-2.486-1.188-4.844-2.514-7.006-3.945l0.732-1.106c2.111,1.396,4.414,2.693,6.846,3.855L80.709,369.073z M198.383,367.972
				l-0.359-1.276c1.111-0.313,2.211-0.624,3.299-0.932c1.475-0.417,2.928-0.828,4.364-1.229l0.357,1.278
				c-1.435,0.401-2.888,0.813-4.36,1.228C200.595,367.349,199.495,367.659,198.383,367.972z M267.568,366.863
				c-2.447-1.158-4.898-2.179-7.288-3.032l0.447-1.25c2.43,0.869,4.923,1.905,7.408,3.082L267.568,366.863z M213.715,363.743
				l-0.329-1.286c2.857-0.731,5.402-1.324,7.78-1.815l0.268,1.3C219.077,362.428,216.552,363.018,213.715,363.743z M252.722,361.603
				c-2.564-0.593-5.178-1.026-7.766-1.286l0.133-1.321c2.644,0.267,5.313,0.709,7.933,1.313L252.722,361.603z M229.229,360.623
				l-0.168-1.316c2.784-0.356,5.399-0.556,7.996-0.615l0.029,1.326C234.537,360.076,231.966,360.273,229.229,360.623z
				 M67.364,360.16c-1.988-1.848-3.803-3.864-5.392-5.996l1.064-0.793c1.541,2.066,3.301,4.023,5.231,5.816L67.364,360.16z
				 M57.771,347.276c-1.161-2.367-2.138-4.899-2.902-7.522l1.274-0.371c0.743,2.551,1.691,5.01,2.819,7.31L57.771,347.276z
				 M53.22,331.868c-0.344-2.574-0.526-5.275-0.541-8.025l1.327-0.008c0.015,2.695,0.193,5.339,0.529,7.857L53.22,331.868z
				 M54.397,315.955l-1.32-0.135c0.266-2.599,0.668-5.27,1.194-7.936l1.302,0.257C55.055,310.768,54.659,313.397,54.397,315.955z
				 M57.439,300.455l-1.275-0.369c1.346-4.661,2.557-7.501,2.608-7.619l1.22,0.522C59.979,293.018,58.76,295.879,57.439,300.455z"/>
		</g>
		<g>
			<path style="fill:#C2BEBC;" d="M479.122,139.393c-0.022-0.02-2.239-1.988-6.209-4.938l0.792-1.065
				c4.021,2.989,6.277,4.993,6.3,5.013L479.122,139.393z M466.419,129.883c-2.183-1.457-4.439-2.888-6.706-4.252l0.685-1.137
				c2.285,1.374,4.559,2.816,6.759,4.285L466.419,129.883z M452.817,121.699c-2.332-1.258-4.712-2.469-7.072-3.6l0.573-1.197
				c2.38,1.14,4.778,2.361,7.129,3.629L452.817,121.699z M438.506,114.852c-2.452-1.025-4.94-1.99-7.395-2.867l0.446-1.25
				c2.477,0.885,4.986,1.858,7.46,2.893L438.506,114.852z M337.659,113.227l-0.029-1.327c2.573-0.057,5.207-0.304,7.829-0.735
				l0.215,1.31C342.991,112.916,340.295,113.169,337.659,113.227z M329.628,112.815c-2.594-0.324-5.249-0.847-7.892-1.552
				l0.342-1.282c2.585,0.689,5.181,1.2,7.714,1.517L329.628,112.815z M353.508,110.672l-0.374-1.273
				c0.852-0.25,1.721-0.524,2.582-0.813c1.659-0.557,3.351-1.079,5.028-1.551l0.36,1.277c-1.657,0.467-3.328,0.982-4.967,1.532
				C355.261,110.138,354.376,110.416,353.508,110.672z M423.574,109.527c-2.548-0.751-5.126-1.43-7.664-2.016l0.299-1.293
				c2.563,0.592,5.168,1.277,7.74,2.036L423.574,109.527z M314.117,108.748c-2.337-0.912-4.733-1.966-7.327-3.222l0.579-1.195
				c2.562,1.242,4.927,2.282,7.231,3.18L314.117,108.748z M368.792,106.46l-0.261-1.301c2.603-0.523,5.264-0.953,7.907-1.276
				l0.161,1.317C373.989,105.519,371.362,105.943,368.792,106.46z M408.141,105.971c-2.615-0.431-5.256-0.778-7.85-1.029
				l0.128-1.321c2.623,0.254,5.294,0.605,7.938,1.041L408.141,105.971z M174.903,104.707l-0.723-1.113
				c2.273-1.475,4.551-2.899,6.767-4.236l0.686,1.137C179.429,101.824,177.164,103.241,174.903,104.707z M384.481,104.534
				l-0.061-1.326c2.641-0.124,5.327-0.152,8.007-0.081l-0.034,1.327C389.744,104.384,387.091,104.411,384.481,104.534z
				 M299.69,101.855c-2.25-1.223-4.483-2.48-6.96-3.878l0.652-1.156c2.472,1.395,4.7,2.649,6.941,3.868L299.69,101.855z
				 M188.504,96.524l-0.643-1.162c2.379-1.313,4.759-2.563,7.074-3.713l0.591,1.188C193.227,93.979,190.865,95.219,188.504,96.524z
				 M285.793,94.096c-2.599-1.425-4.896-2.634-7.023-3.696l0.593-1.188c2.143,1.07,4.455,2.287,7.068,3.72L285.793,94.096z
				 M202.711,89.489l-0.529-1.217c2.5-1.087,4.998-2.087,7.426-2.974l0.456,1.246C207.66,87.422,205.186,88.413,202.711,89.489z
				 M271.584,87.073c-2.543-1.075-4.962-1.984-7.395-2.78l0.412-1.261c2.47,0.807,4.923,1.729,7.501,2.819L271.584,87.073z
				 M217.583,84.081l-0.367-1.275c2.616-0.754,5.234-1.398,7.78-1.912l0.263,1.301C222.748,82.702,220.166,83.337,217.583,84.081z
				 M256.58,82.216c-2.575-0.563-5.191-0.989-7.775-1.265l0.141-1.32c2.633,0.281,5.297,0.714,7.919,1.289L256.58,82.216z
				 M233.063,80.985l-0.142-1.32c2.688-0.288,5.383-0.438,8.014-0.446l0.004,1.327C238.354,80.554,235.704,80.702,233.063,80.985z"
				/>
		</g>
		<g>
			<g>
				<g>
					<g>
						<polygon style="fill:#D6D6D6;" points="313.753,381.426 280.393,371.727 290.393,368.711 						"/>
					</g>
				</g>
			</g>
			<g>
				<g>
					<g>
						<polygon style="fill:#E8E8E8;" points="313.753,381.426 301.284,368.902 293.609,370.461 						"/>
					</g>
				</g>
			</g>
			<g>
				<g>
					<g>
						<polygon style="fill:#C2C2C2;" points="288.065,373.956 288.334,377.816 313.753,381.426 						"/>
					</g>
				</g>
			</g>
		</g>
		<g>
			<g>
				<g>
					<g>
						<polygon style="fill:#D6D6D6;" points="145.852,126.773 175.257,110.328 165.149,109.661 						"/>
					</g>
				</g>
			</g>
			<g>
				<g>
					<g>
						<polygon style="fill:#E8E8E8;" points="145.852,126.773 154.9,112.219 162.493,112.017 						"/>
					</g>
				</g>
			</g>
			<g>
				<g>
					<g>
						<polygon style="fill:#C2C2C2;" points="168.494,114.11 169.083,117.815 145.852,126.773 						"/>
					</g>
				</g>
			</g>
		</g>
	</g>
</g>
</svg>
